# This file uses centimeters as units for non-parametric coordinates.

mtllib desk2.mtl
g desk3:default1
v -28.061064 9.856923 11.562257
v -25.770355 9.856923 11.562255
v -28.061062 9.856923 9.858344
v -25.770355 9.856923 9.858344
v -25.770355 -10.906203 11.562255
v -28.061064 -10.906203 11.562257
v -28.061062 -10.906203 9.858344
v -25.770355 -10.906203 9.858344
v 7.731109 9.856923 10.953716
v 25.770355 9.856923 10.953716
v 7.731109 9.856923 -10.953716
v 25.770355 9.856923 11.562257
v 28.061064 9.856923 11.562257
v 28.061064 9.856923 -11.562257
v 28.061064 9.856923 -9.858344
v 28.061062 9.856923 9.858344
v 26.915710 9.856923 9.858344
v 26.915710 9.856923 -9.858344
v 25.770355 -10.906201 10.953716
v 7.731109 -10.906201 10.953716
v 7.731109 -10.906201 -10.953716
v 28.061064 -10.906201 11.562257
v 25.770355 -10.906201 11.562257
v 26.915710 -10.906201 9.858344
v 28.061062 -10.906201 9.858344
v 28.061064 -10.906203 -9.858344
v 26.915710 -10.906203 -9.858344
v 28.061064 -10.906203 -11.562257
v -28.633738 9.856923 12.170796
v 28.633738 9.856923 12.170796
v -28.633738 9.856923 -12.170796
v 28.633738 9.856923 -12.170796
v 29.582569 10.313871 12.574098
v 29.582569 10.313871 -12.574098
v -29.582569 10.313871 -12.574098
v -29.582569 10.313871 12.574098
v 29.582569 10.906203 12.574098
v 29.582569 10.906203 -12.574098
v -29.582569 10.906203 -12.574098
v -29.582569 10.906203 12.574098
v 25.770355 9.856923 12.170796
v -28.061064 9.856923 -11.562257
v -25.770355 9.856923 -11.562255
v -28.061064 9.856923 -9.858344
v -25.770355 9.856923 -9.858344
v -25.770355 -10.906203 -9.858344
v -28.061064 -10.906203 -9.858344
v -28.061064 -10.906203 -11.562257
v -25.770355 -10.906203 -11.562255
vt 0.076536 0.441908
vt 0.135731 0.441908
vt 0.135731 0.978455
vt 0.076536 0.978455
vt 0.179762 0.441908
vt 0.179762 0.978455
vt 0.032504 0.978455
vt 0.032504 0.441908
vt 0.702240 0.982178
vt 0.702240 0.737925
vt 0.983373 0.737925
vt 0.983374 0.982178
vt 0.702240 0.441297
vt 0.983373 0.441297
vt 0.346735 0.912886
vt 0.346735 0.874678
vt 0.693049 0.874678
vt 0.693049 0.912886
vt 0.346736 0.864528
vt 0.693049 0.864528
vt 0.346735 0.960409
vt 0.346735 0.941306
vt 0.693049 0.941306
vt 0.693049 0.960409
vt 0.369434 0.834443
vt 0.348791 0.834443
vt 0.348791 0.460231
vt 0.369434 0.460231
vt 0.400143 0.460231
vt 0.400143 0.834443
vt 0.414147 0.494765
vt 0.689174 0.494765
vt 0.689174 0.784389
vt 0.414147 0.784389
vt 0.054073 0.410027
vt 0.054073 0.027996
vt 0.952864 0.027996
vt 0.952864 0.410027
vt 0.029077 0.403901
vt 0.029077 0.034122
vt 0.045075 0.027996
vt 0.045075 0.410027
vt 0.977860 0.034122
vt 0.977860 0.403901
vt 0.961862 0.410027
vt 0.961862 0.027996
vt 0.054073 0.419026
vt 0.952864 0.419026
vt 0.938450 0.428284
vt 0.111985 0.428284
vt 0.068487 0.428284
vt 0.054073 0.018997
vt 0.952864 0.018997
vt 0.233721 0.440066
vt 0.292862 0.440066
vt 0.292862 0.976120
vt 0.233721 0.976120
vt 0.336853 0.440066
vt 0.336853 0.976120
vt 0.189730 0.976120
vt 0.189730 0.440066
vn 0.000001 0.000000 1.000000
vn 0.000001 0.000000 1.000000
vn 0.000001 0.000000 1.000000
vn 0.000001 0.000000 1.000000
vn 0.000001 0.000000 1.000000
vn 0.000001 0.000000 1.000000
vn -1.000000 0.000000 -0.000001
vn -1.000000 0.000000 -0.000001
vn -1.000000 0.000000 -0.000001
vn -1.000000 0.000000 -0.000001
vn -1.000000 0.000000 -0.000001
vn -1.000000 0.000000 -0.000001
vn 1.000000 0.000000 0.000000
vn 1.000000 0.000000 0.000000
vn 1.000000 0.000000 0.000000
vn 1.000000 0.000000 0.000000
vn 1.000000 0.000000 0.000000
vn 1.000000 0.000000 0.000000
vn 0.000000 0.000000 1.000000
vn 0.000000 0.000000 1.000000
vn 0.000000 0.000000 1.000000
vn 0.000000 0.000000 1.000000
vn 0.000000 0.000000 1.000000
vn 0.000000 0.000000 1.000000
vn -1.000000 0.000000 0.000000
vn -1.000000 0.000000 0.000000
vn -1.000000 0.000000 0.000000
vn -1.000000 0.000000 0.000000
vn -1.000000 0.000000 0.000000
vn -1.000000 0.000000 0.000000
vn 0.000000 0.000000 1.000000
vn 0.000000 0.000000 1.000000
vn 0.000000 0.000000 1.000000
vn 0.000000 0.000000 1.000000
vn 0.000000 0.000000 1.000000
vn 0.000000 0.000000 1.000000
vn -1.000000 0.000000 0.000000
vn -1.000000 0.000000 0.000000
vn -1.000000 0.000000 0.000000
vn -1.000000 0.000000 0.000000
vn -1.000000 0.000000 0.000000
vn -1.000000 0.000000 0.000000
vn 0.000000 0.000000 -1.000000
vn 0.000000 0.000000 -1.000000
vn 0.000000 0.000000 -1.000000
vn 0.000000 0.000000 -1.000000
vn 0.000000 0.000000 -1.000000
vn 0.000000 0.000000 -1.000000
vn 1.000000 0.000000 -0.000001
vn 1.000000 0.000000 -0.000001
vn 1.000000 0.000000 -0.000001
vn 1.000000 0.000000 -0.000001
vn 1.000000 0.000000 -0.000001
vn 1.000000 0.000000 -0.000001
vn 0.000000 0.000000 1.000000
vn 0.000000 0.000000 1.000000
vn 0.000000 0.000000 1.000000
vn 0.000000 0.000000 1.000000
vn 0.000000 0.000000 1.000000
vn 0.000000 0.000000 1.000000
vn 1.000000 0.000000 0.000000
vn 1.000000 0.000000 0.000000
vn 1.000000 0.000000 0.000000
vn 1.000000 0.000000 0.000000
vn 1.000000 0.000000 0.000000
vn 1.000000 0.000000 0.000000
vn 1.000000 0.000000 0.000000
vn 1.000000 0.000000 0.000000
vn 1.000000 0.000000 0.000000
vn 1.000000 0.000000 0.000000
vn 1.000000 0.000000 0.000000
vn 1.000000 0.000000 0.000000
vn 0.000000 1.000000 0.000000
vn 0.000000 1.000000 0.000000
vn 0.000000 1.000000 0.000000
vn 0.000000 1.000000 0.000000
vn 0.000000 1.000000 0.000000
vn 0.000000 1.000000 0.000000
vn 0.433896 -0.900963 0.000000
vn 0.433896 -0.900963 0.000000
vn 0.433896 -0.900963 0.000000
vn 0.433896 -0.900963 0.000000
vn 0.433896 -0.900963 0.000000
vn 0.433896 -0.900963 0.000000
vn -0.433896 -0.900963 0.000000
vn -0.433896 -0.900963 0.000000
vn -0.433896 -0.900963 0.000000
vn -0.433896 -0.900963 0.000000
vn -0.433896 -0.900963 0.000000
vn -0.433896 -0.900963 0.000000
vn 0.000000 -0.661725 0.749747
vn 0.000000 -0.661725 0.749747
vn 0.000000 -0.661725 0.749747
vn 0.000000 -0.661725 0.749747
vn 0.000000 -0.661725 0.749747
vn 0.000000 -0.661725 0.749747
vn 0.000000 -0.661725 0.749747
vn 0.000000 -0.661725 0.749747
vn 0.000000 -0.661725 0.749747
vn 1.000000 0.000000 0.000000
vn 1.000000 0.000000 0.000000
vn 1.000000 0.000000 0.000000
vn 1.000000 0.000000 0.000000
vn 1.000000 0.000000 0.000000
vn 1.000000 0.000000 0.000000
vn 0.000000 0.000000 -1.000000
vn 0.000000 0.000000 -1.000000
vn 0.000000 0.000000 -1.000000
vn 0.000000 0.000000 -1.000000
vn 0.000000 0.000000 -1.000000
vn 0.000000 0.000000 -1.000000
vn -1.000000 0.000000 0.000000
vn -1.000000 0.000000 0.000000
vn -1.000000 0.000000 0.000000
vn -1.000000 0.000000 0.000000
vn -1.000000 0.000000 0.000000
vn -1.000000 0.000000 0.000000
vn 0.000000 0.000000 1.000000
vn 0.000000 0.000000 1.000000
vn 0.000000 0.000000 1.000000
vn 0.000000 0.000000 1.000000
vn 0.000000 0.000000 1.000000
vn 0.000000 0.000000 1.000000
vn 0.000000 0.000000 1.000000
vn 0.000000 0.000000 1.000000
vn 0.000000 0.000000 1.000000
vn 0.000000 0.000000 1.000000
vn 0.000000 0.000000 1.000000
vn 0.000000 0.000000 1.000000
vn -1.000000 0.000000 0.000000
vn -1.000000 0.000000 0.000000
vn -1.000000 0.000000 0.000000
vn -1.000000 0.000000 0.000000
vn -1.000000 0.000000 0.000000
vn -1.000000 0.000000 0.000000
vn 1.000000 0.000000 0.000000
vn 1.000000 0.000000 0.000000
vn 1.000000 0.000000 0.000000
vn 1.000000 0.000000 0.000000
vn 1.000000 0.000000 0.000000
vn 1.000000 0.000000 0.000000
s off
g desk3:group desk3:pasted__pPlane1 desk3:polySurface2 desk3:polySurface3 desk3:polySurface4 desk3:polySurface1
usemtl initialShadingGroup
f 2/1/1 1/2/2 5/4/3
f 5/4/4 1/2/5 6/3/6
f 6/3/7 1/2/8 7/6/9
f 7/6/10 1/2/11 3/5/12
f 5/4/13 8/7/14 2/1/15
f 2/1/16 8/7/17 4/8/18
f 10/9/19 9/10/20 19/12/21
f 19/12/22 9/10/23 20/11/24
f 20/11/25 9/10/26 21/14/27
f 21/14/28 9/10/29 11/13/30
f 13/15/31 12/16/32 22/18/33
f 22/18/34 12/16/35 23/17/36
g desk3:group desk3:pasted__pPlane1 desk3:polySurface3 desk3:polySurface4 desk3:polySurface5 desk3:polySurface6 desk3:polySurface1
f 12/16/37 10/19/38 23/17/39
f 23/17/40 10/19/41 19/20/42
f 17/21/43 16/22/44 24/24/45
f 24/24/46 16/22/47 25/23/48
f 22/18/49 25/23/50 13/15/51
f 13/15/52 25/23/53 16/22/54
g desk3:group desk3:pasted__pPlane1 desk3:polySurface3 desk3:polySurface4 desk3:polySurface6 desk3:polySurface7 desk3:polySurface8 desk3:polySurface1
f 15/25/55 18/26/56 26/28/57
f 26/28/58 18/26/59 27/27/60
f 26/28/61 28/29/62 15/25/63
f 15/25/64 28/29/65 14/30/66
f 18/31/67 17/32/68 27/34/69
f 27/34/70 17/32/71 24/33/72
g desk3:group desk3:pasted__pPlane1 desk3:polySurface2 desk3:polySurface3 desk3:polySurface4 desk3:polySurface1
f 37/35/73 38/36/74 40/38/75
f 40/38/76 38/36/77 39/37/78
f 30/39/79 32/40/80 33/42/81
f 33/42/82 32/40/83 34/41/84
f 31/43/85 29/44/86 35/46/87
f 35/46/88 29/44/89 36/45/90
g desk3:group desk3:pasted__pPlane1 desk3:polySurface3 desk3:polySurface4 desk3:polySurface5 desk3:polySurface6 desk3:polySurface1
f 33/47/91 36/48/92 30/51/93
f 30/51/94 36/48/95 41/50/96
f 36/48/97 29/49/98 41/50/99
f 33/42/100 34/41/101 37/35/102
f 37/35/103 34/41/104 38/36/105
f 34/52/106 35/53/107 38/36/108
f 38/36/109 35/53/110 39/37/111
g desk3:group desk3:pasted__pPlane1 desk3:polySurface3 desk3:polySurface4 desk3:polySurface6 desk3:polySurface7 desk3:polySurface8 desk3:polySurface1
f 35/46/112 36/45/113 39/37/114
f 39/37/115 36/45/116 40/38/117
f 36/48/118 33/47/119 40/38/120
f 40/38/121 33/47/122 37/35/123
g desk3:group desk3:pasted__pPlane1 desk3:polySurface2 desk3:polySurface3 desk3:polySurface4 desk3:polySurface1
f 45/54/124 44/55/125 46/57/126
f 46/57/127 44/55/128 47/56/129
f 47/56/130 44/55/131 48/59/132
f 48/59/133 44/55/134 42/58/135
f 46/57/136 49/60/137 45/54/138
f 45/54/139 49/60/140 43/61/141
