# This file uses centimeters as units for non-parametric coordinates.

mtllib map.mtl
g default
v 25.248976 1.142452 5.329849
v 27.536640 1.142452 4.747306
v 30.013323 1.284507 5.329849
v 32.034164 -1.632187 5.112121
v 32.204964 -4.265257 4.865731
v 32.743015 -7.698999 5.329849
v 24.306831 1.058853 0.803413
v 26.602438 1.142452 0.158686
v 29.973526 1.197756 0.803413
v 31.611488 -1.632187 0.803413
v 32.062569 -4.265257 0.555099
v 32.320339 -7.567399 0.803413
v 23.886580 1.455223 -3.723023
v 26.602438 1.982432 -4.440910
v 30.166676 1.898139 -3.723023
v 32.034164 -1.632187 -3.723023
v 32.622665 -4.265257 -3.971337
v 32.633099 -6.793623 -3.723023
v 22.798206 1.142452 -8.249460
v 25.514067 1.142452 -8.916659
v 29.934654 1.142452 -8.249460
v 30.945791 -1.632187 -8.054345
v 31.396870 -4.265257 -8.387818
v 31.654640 -7.175606 -8.249460
vt 0.152186 0.201677
vt 0.272723 0.227651
vt 0.232796 0.468976
vt 0.111835 0.439850
vt 0.401056 0.192430
vt 0.407625 0.428784
vt 0.586451 0.200414
vt 0.652814 0.455495
vt 0.483347 0.434518
vt 0.723699 0.217038
vt 0.790505 0.481164
vt 0.905627 0.196676
vt 0.890692 0.433706
vt 0.243411 0.712883
vt 0.098700 0.677665
vt 0.427682 0.667414
vt 0.634622 0.692256
vt 0.773631 0.718793
vt 0.906171 0.715505
vt 0.096909 0.687310
vt 0.198853 0.953317
vt 0.055773 0.927171
vt 0.427776 0.907278
vt 0.581384 0.919043
vt 0.735907 0.955228
vt 0.599082 0.922820
vt 0.909040 0.958143
vt 0.756382 0.957516
vt 0.963961 0.482164
vt 0.717486 0.442161
vt 0.578321 0.426314
vn -0.019611 0.999795 -0.005133
vn -0.027098 0.999617 -0.005663
vn -0.044222 0.995098 0.088456
vn -0.047521 0.997206 0.057629
vn -0.027098 0.999617 -0.005663
vn 0.517418 0.855041 -0.034415
vn 0.569506 0.819066 0.069244
vn -0.044222 0.995098 0.088456
vn 0.517418 0.855041 -0.034415
vn 0.928062 0.367971 -0.057435
vn 0.930967 0.364197 0.025710
vn 0.569506 0.819066 0.069244
vn 0.928062 0.367971 -0.057435
vn 0.991238 0.116021 -0.063141
vn 0.993001 0.116616 0.018729
vn 0.930967 0.364197 0.025710
vn 0.991238 0.116021 -0.063141
vn 0.991936 0.110660 -0.061780
vn 0.994080 0.102187 -0.036922
vn 0.993001 0.116616 0.018729
vn -0.047521 0.997206 0.057629
vn -0.044222 0.995098 0.088456
vn -0.013660 0.999628 -0.023627
vn -0.102884 0.994529 0.018062
vn -0.044222 0.995098 0.088456
vn 0.569506 0.819066 0.069244
vn 0.186149 0.982433 -0.013219
vn -0.013660 0.999628 -0.023627
vn 0.569506 0.819066 0.069244
vn 0.930967 0.364197 0.025710
vn 0.937357 0.344763 -0.049997
vn 0.186149 0.982433 -0.013219
vn 0.930967 0.364197 0.025710
vn 0.993001 0.116616 0.018729
vn 0.990161 0.120678 -0.070845
vn 0.937357 0.344763 -0.049997
vn 0.993001 0.116616 0.018729
vn 0.994080 0.102187 -0.036922
vn 0.997471 0.044194 -0.055672
vn 0.990161 0.120678 -0.070845
vn -0.102884 0.994529 0.018062
vn -0.013660 0.999628 -0.023627
vn -0.031140 0.989123 -0.143754
vn -0.120703 0.987907 -0.097318
vn -0.013660 0.999628 -0.023627
vn 0.186149 0.982433 -0.013219
vn 0.635464 0.745430 -0.201295
vn -0.031140 0.989123 -0.143754
vn 0.186149 0.982433 -0.013219
vn 0.937357 0.344763 -0.049997
vn 0.923814 0.323146 -0.205289
vn 0.635464 0.745430 -0.201295
vn 0.937357 0.344763 -0.049997
vn 0.990161 0.120678 -0.070845
vn 0.961594 0.121502 -0.246118
vn 0.923814 0.323146 -0.205289
vn 0.990161 0.120678 -0.070845
vn 0.997471 0.044194 -0.055672
vn 0.970176 0.030749 -0.240443
vn 0.961594 0.121502 -0.246118
s off
g map:Map
usemtl map:initialShadingGroup
f 1/1/1 2/2/2 8/3/3 7/4/4
f 2/2/5 3/5/6 9/6/7 8/3/8
f 3/5/9 4/7/10 10/31/11 9/6/12
f 4/7/13 5/10/14 11/30/15 10/31/16
f 5/10/17 6/12/18 12/13/19 11/30/20
f 7/4/21 8/3/22 14/14/23 13/15/24
f 8/3/25 9/6/26 15/16/27 14/14/28
f 9/9/29 10/8/30 16/17/31 15/16/32
f 10/8/33 11/11/34 17/18/35 16/17/36
f 11/11/37 12/29/38 18/19/39 17/18/40
f 13/20/41 14/14/42 20/21/43 19/22/44
f 14/14/45 15/16/46 21/23/47 20/21/48
f 15/16/49 16/17/50 22/24/51 21/23/52
f 16/17/53 17/18/54 23/25/55 22/26/56
f 17/18/57 18/19/58 24/27/59 23/28/60
