# This file uses centimeters as units for non-parametric coordinates.

mtllib readySquares.mtl
g default
v -24.545334 38.344986 -3.769383
v -24.545334 38.344986 -26.393616
v 0.824677 38.344986 -26.393616
v 0.824677 38.344986 -10.556654
v -6.786325 38.344986 -3.769383
v 69.970879 38.344986 -3.769383
v 44.600864 38.344986 -26.393616
v 69.970879 38.344986 -26.393616
v 44.600864 38.344986 -10.556654
v 52.211868 38.344986 -3.769383
v 44.552151 38.344986 29.147488
v 69.922157 38.344986 29.147488
v 69.922157 38.344986 6.523254
v 52.163155 38.344986 6.523254
v 44.552151 38.344986 13.310524
v -24.545332 38.344986 29.147488
v 0.824677 38.344986 29.147488
v -24.545332 38.344986 6.523254
v 0.824677 38.344986 13.310524
v -6.786325 38.344986 6.523254
vt 0.022150 0.523731
vt 0.348529 0.522609
vt 0.489834 0.937922
vt 0.488834 0.646867
vt 0.518451 0.646762
vt 0.516842 0.937815
vt 0.659016 0.522798
vt 0.985392 0.524603
vt 0.983093 0.940392
vt 0.517351 0.074473
vt 0.983609 0.074787
vt 0.983329 0.490582
vt 0.656948 0.490363
vt 0.019313 0.079928
vt 0.485571 0.079179
vt 0.346361 0.495199
vt 0.019981 0.495723
vt 0.023579 0.939524
vt 0.517155 0.365530
vt 0.486038 0.370236
vn 0.000000 1.000000 0.000000
vn 0.000000 1.000000 -0.000000
vn 0.000000 1.000000 -0.000000
vn 0.000000 1.000000 -0.000000
vn 0.000000 1.000000 0.000000
vn 0.000000 1.000000 0.000000
vn 0.000000 1.000000 0.000000
vn 0.000000 1.000000 0.000000
vn 0.000000 1.000000 0.000000
vn 0.000000 1.000000 0.000000
vn 0.000000 1.000000 -0.000000
vn 0.000000 1.000000 -0.000000
vn 0.000000 1.000000 0.000000
vn 0.000000 1.000000 -0.000000
vn 0.000000 1.000000 0.000000
vn 0.000000 1.000000 0.000000
vn 0.000000 1.000000 0.000000
vn 0.000000 1.000000 0.000000
vn 0.000000 1.000000 0.000000
vn 0.000000 1.000000 0.000000
s 1
g pPlane5
usemtl lambert19SG
f 1/1/1 5/2/2 2/18/3
f 2/18/3 5/2/2 3/3/4
f 3/3/4 5/2/2 4/4/5
s 2
f 9/5/6 10/7/7 7/6/8
f 7/6/8 10/7/7 8/9/9
f 8/9/9 10/7/7 6/8/10
s 3
f 11/10/11 14/13/12 15/19/13
f 11/10/11 12/11/14 14/13/12
f 14/13/12 12/11/14 13/12/15
s 4
f 20/16/16 17/15/17 19/20/18
f 17/15/17 20/16/16 16/14/19
f 16/14/19 20/16/16 18/17/20
g default
v -24.545334 38.344986 -3.769383
v -24.545334 38.344986 -26.393616
v 0.824677 38.344986 -26.393616
v 0.824677 38.344986 -10.556654
v -6.786325 38.344986 -3.769383
v 69.970879 38.344986 -3.769383
v 44.600864 38.344986 -26.393616
v 69.970879 38.344986 -26.393616
v 44.600864 38.344986 -10.556654
v 52.211868 38.344986 -3.769383
v 44.552151 38.344986 29.147488
v 69.922157 38.344986 29.147488
v 69.922157 38.344986 6.523254
v 52.163155 38.344986 6.523254
v 44.552151 38.344986 13.310524
v -24.545332 38.344986 29.147488
v 0.824677 38.344986 29.147488
v -24.545332 38.344986 6.523254
v 0.824677 38.344986 13.310524
v -6.786325 38.344986 6.523254
vt 0.022150 0.523731
vt 0.348529 0.522609
vt 0.489834 0.937922
vt 0.488834 0.646867
vt 0.518451 0.646762
vt 0.516842 0.937815
vt 0.659016 0.522798
vt 0.985392 0.524603
vt 0.983093 0.940392
vt 0.517351 0.074473
vt 0.983609 0.074787
vt 0.983329 0.490582
vt 0.656948 0.490363
vt 0.019313 0.079928
vt 0.485571 0.079179
vt 0.346361 0.495199
vt 0.019981 0.495723
vt 0.023579 0.939524
vt 0.517155 0.365530
vt 0.486038 0.370236
vn 0.000000 1.000000 0.000000
vn 0.000000 1.000000 -0.000000
vn 0.000000 1.000000 -0.000000
vn 0.000000 1.000000 -0.000000
vn 0.000000 1.000000 0.000000
vn 0.000000 1.000000 0.000000
vn 0.000000 1.000000 0.000000
vn 0.000000 1.000000 0.000000
vn 0.000000 1.000000 0.000000
vn 0.000000 1.000000 0.000000
vn 0.000000 1.000000 -0.000000
vn 0.000000 1.000000 -0.000000
vn 0.000000 1.000000 0.000000
vn 0.000000 1.000000 -0.000000
vn 0.000000 1.000000 0.000000
vn 0.000000 1.000000 0.000000
vn 0.000000 1.000000 0.000000
vn 0.000000 1.000000 0.000000
vn 0.000000 1.000000 0.000000
vn 0.000000 1.000000 0.000000
s 1
g pPlane5
f 21/21/21 25/22/22 22/38/23
f 22/38/23 25/22/22 23/23/24
f 23/23/24 25/22/22 24/24/25
s 2
f 29/25/26 30/27/27 27/26/28
f 27/26/28 30/27/27 28/29/29
f 28/29/29 30/27/27 26/28/30
s 3
f 31/30/31 34/33/32 35/39/33
f 31/30/31 32/31/34 34/33/32
f 34/33/32 32/31/34 33/32/35
s 4
f 40/36/36 37/35/37 39/40/38
f 37/35/37 40/36/36 36/34/39
f 36/34/39 40/36/36 38/37/40
