# This file uses centimeters as units for non-parametric coordinates.

mtllib room.mtl
g default
v -75.751948 -37.205077 0.000000
v 76.811585 -37.205077 0.000000
v -75.751948 37.205090 -0.000000
v 76.811585 37.205090 -0.000000
v -75.751948 -37.205077 46.713940
v 76.811585 -37.205077 46.713940
vt 0.968970 0.483366
vt 0.969018 0.945939
vt 0.020603 0.946035
vt 0.020556 0.483462
vt 0.022026 0.085139
vt 0.970440 0.084867
vt 0.970523 0.375265
vt 0.022109 0.375537
vn 0.000000 0.000000 1.000000
vn 0.000000 0.000000 1.000000
vn 0.000000 0.000000 1.000000
vn 0.000000 0.000000 1.000000
vn 0.000000 1.000000 -0.000000
vn 0.000000 1.000000 -0.000000
vn 0.000000 1.000000 -0.000000
vn 0.000000 1.000000 -0.000000
s 1
g pPlane3
usemtl lambert2SG
f 2/1/1 4/2/2 1/4/3
f 1/4/3 4/2/2 3/3/4
s 2
f 2/5/5 1/6/6 6/8/7
f 6/8/7 1/6/6 5/7/8
