# This file uses centimeters as units for non-parametric coordinates.

mtllib marker.mtl
g scene:default1
v 88.819303 6.268542 -22.177544
v 88.707958 6.408654 -22.206233
v 88.549083 6.479662 -22.254106
v 88.377857 6.465344 -22.310516
v 88.233882 6.368968 -22.362456
v 88.150128 6.212615 -22.398029
v 88.145335 6.032117 -22.409181
v 88.221505 5.868793 -22.393171
v 88.360954 5.760055 -22.353642
v 88.531152 5.730858 -22.299896
v 88.693165 5.787869 -22.244159
v 88.810404 5.918017 -22.199093
v 88.855745 6.091498 -22.175104
v 84.979542 5.638668 -10.365226
v 84.868211 5.778790 -10.393981
v 84.709135 5.849802 -10.441865
v 84.538096 5.835480 -10.498295
v 84.394135 5.739104 -10.550239
v 84.310354 5.582745 -10.585767
v 84.305621 5.402257 -10.596936
v 84.381764 5.238922 -10.580881
v 84.521047 5.130195 -10.541398
v 84.691471 5.100984 -10.487565
v 84.853491 5.157999 -10.431869
g scene:default2
v 84.970663 5.288153 -10.386842
v 85.016038 5.461627 -10.362838
v 88.224583 6.049302 -22.382503
v 88.282795 5.923306 -22.370320
v 88.390681 5.839400 -22.339740
v 88.522013 5.816863 -22.298266
v 88.646795 5.860869 -22.255324
v 88.737271 5.961284 -22.220555
v 88.772239 6.095138 -22.202054
v 88.743727 6.231761 -22.204031
v 88.658471 6.339844 -22.226036
v 88.535398 6.394647 -22.263083
v 88.403158 6.383608 -22.306649
v 88.292228 6.309237 -22.346688
v 88.227420 6.188609 -22.374174
v 88.722231 5.873241 -22.487406
v 88.812687 5.973660 -22.452633
v 88.597422 5.829236 -22.530294
v 88.466110 5.851772 -22.571773
v 88.358765 5.935657 -22.602230
v 88.300012 6.061682 -22.614588
v 88.302822 6.200985 -22.606248
v 88.367470 6.321620 -22.578794
v 88.479068 6.395956 -22.538548
g scene:default3
v 88.610766 6.407027 -22.495164
v 88.733706 6.352224 -22.458117
v 88.819156 6.244133 -22.436113
v 88.847674 6.107510 -22.434122
vt 0.661726 0.598233
vt 0.657414 0.597965
vt 0.661726 0.129138
vt 0.657415 0.128870
vt 0.668554 0.598384
vt 0.668554 0.128987
vt 0.589138 0.598116
vt 0.582310 0.598116
vt 0.589137 0.128720
vt 0.582310 0.128719
vt 0.595966 0.598116
vt 0.595966 0.128720
vt 0.602794 0.598116
vt 0.602794 0.128719
vt 0.609622 0.598116
vt 0.609622 0.128720
vt 0.616449 0.598116
vt 0.616450 0.128719
vt 0.623277 0.598116
vt 0.623278 0.128719
vt 0.630105 0.598116
vt 0.630106 0.128719
vt 0.636932 0.598116
vt 0.636933 0.128718
vt 0.643758 0.598116
vt 0.643760 0.128719
vt 0.650587 0.598116
vt 0.650587 0.128719
vt 0.468633 0.930583
vt 0.473842 0.935273
vt 0.461922 0.943388
vt 0.468659 0.945144
vt 0.461922 0.957838
vt 0.468661 0.956294
vt 0.468649 0.970620
vt 0.473864 0.966172
vt 0.480505 0.978872
vt 0.483019 0.972548
vt 0.494842 0.980668
vt 0.494091 0.973936
vt 0.508384 0.975643
vt 0.504550 0.970039
vt 0.518066 0.964915
vt 0.512032 0.961772
vt 0.521652 0.950910
vt 0.514794 0.950956
vt 0.518322 0.936844
vt 0.512227 0.940105
vt 0.508831 0.925955
vt 0.504904 0.931709
vt 0.495369 0.920708
vt 0.494513 0.927657
vt 0.481002 0.922316
vt 0.483434 0.928898
vt 0.469036 0.930423
vt 0.474211 0.935161
vt 0.014832 0.712511
vt 0.014847 0.740581
vt 0.011386 0.726548
vt 0.475213 0.942027
vt 0.475194 0.958961
vt 0.473118 0.950493
vt 0.024419 0.701693
vt 0.024428 0.751399
vt 0.037942 0.696569
vt 0.037942 0.756524
vt 0.052291 0.698311
vt 0.052273 0.754777
vt 0.064175 0.706518
vt 0.064190 0.746571
vt 0.070884 0.733768
vt 0.070882 0.719314
vt 0.011571 0.775604
vt 0.022722 0.775604
vt 0.011572 0.795125
vt 0.022722 0.795127
vt 0.033850 0.775606
vt 0.033851 0.795125
vt 0.045000 0.775606
vt 0.045001 0.795125
vt 0.056179 0.775605
vt 0.056154 0.795127
vt 0.067317 0.775609
vt 0.067307 0.795133
vt 0.078469 0.775617
vt 0.078459 0.795138
vt 0.089628 0.775623
vt 0.089612 0.795143
vt 0.100768 0.775625
vt 0.100788 0.795145
vt 0.111927 0.775630
vt 0.111913 0.795151
vt 0.123090 0.775638
vt 0.123067 0.795155
vt 0.134229 0.775642
vt 0.134215 0.795164
vt 0.145381 0.775650
vt 0.145366 0.795171
vt 0.156533 0.775658
vt 0.156519 0.795179
vt 0.481001 0.935503
vt 0.480974 0.965495
vt 0.489156 0.932415
vt 0.489104 0.968582
vt 0.497789 0.933460
vt 0.497789 0.967550
vt 0.504960 0.938419
vt 0.504972 0.962602
vt 0.509008 0.946145
vt 0.509002 0.954868
vn 0.559437 0.797918 0.224405
vn 0.852992 0.427057 0.300046
vn 0.559656 0.797749 0.224460
vn 0.559656 0.797749 0.224460
vn 0.852992 0.427057 0.300046
vn 0.853045 0.426939 0.300062
vn 0.138432 0.985555 0.097555
vn 0.559437 0.797918 0.224405
vn 0.138425 0.985557 0.097547
vn 0.138425 0.985557 0.097547
vn 0.559437 0.797918 0.224405
vn 0.559656 0.797749 0.224460
vn -0.315134 0.947627 -0.051909
vn 0.138432 0.985555 0.097555
vn -0.314992 0.947676 -0.051861
vn -0.314992 0.947676 -0.051861
vn 0.138432 0.985555 0.097555
vn 0.138425 0.985557 0.097547
vn -0.695976 0.692662 -0.189303
vn -0.315134 0.947627 -0.051909
vn -0.695982 0.692656 -0.189304
vn -0.695982 0.692656 -0.189304
vn -0.315134 0.947627 -0.051909
vn -0.314992 0.947676 -0.051861
vn -0.917195 0.280267 -0.283202
vn -0.695976 0.692662 -0.189303
vn -0.917174 0.280347 -0.283192
vn -0.917174 0.280347 -0.283192
vn -0.695976 0.692662 -0.189303
vn -0.695982 0.692656 -0.189304
vn -0.929148 -0.197463 -0.312558
vn -0.917195 0.280267 -0.283202
vn -0.929178 -0.197313 -0.312565
vn -0.929178 -0.197313 -0.312565
vn -0.917195 0.280267 -0.283202
vn -0.917174 0.280347 -0.283192
vn -0.727245 -0.631020 -0.270052
vn -0.929148 -0.197463 -0.312558
vn -0.727008 -0.631322 -0.269986
vn -0.727008 -0.631322 -0.269986
vn -0.929148 -0.197463 -0.312558
vn -0.929178 -0.197313 -0.312565
vn -0.359132 -0.918456 -0.165720
vn -0.727245 -0.631020 -0.270052
vn -0.359171 -0.918440 -0.165725
vn -0.359171 -0.918440 -0.165725
vn -0.727245 -0.631020 -0.270052
vn -0.727008 -0.631322 -0.269986
vn 0.090997 -0.995574 -0.023510
vn -0.359132 -0.918456 -0.165720
vn 0.091099 -0.995565 -0.023477
vn 0.091099 -0.995565 -0.023477
vn -0.359132 -0.918456 -0.165720
vn -0.359171 -0.918440 -0.165725
vn 0.521165 -0.844343 0.124388
vn 0.090997 -0.995574 -0.023510
vn 0.521049 -0.844421 0.124342
vn 0.521049 -0.844421 0.124342
vn 0.090997 -0.995574 -0.023510
vn 0.091099 -0.995565 -0.023477
vn 0.830979 -0.500207 0.243448
vn 0.521165 -0.844343 0.124388
vn 0.830926 -0.500306 0.243425
vn 0.830926 -0.500306 0.243425
vn 0.521165 -0.844343 0.124388
vn 0.521049 -0.844421 0.124342
vn 0.950812 -0.042940 0.306779
vn 0.830979 -0.500207 0.243448
vn 0.950808 -0.043001 0.306782
vn 0.950808 -0.043001 0.306782
vn 0.830979 -0.500207 0.243448
vn 0.830926 -0.500306 0.243425
vn 0.853045 0.426939 0.300062
vn 0.852992 0.427057 0.300046
vn 0.950808 -0.043001 0.306782
vn 0.950808 -0.043001 0.306782
vn 0.852992 0.427057 0.300046
vn 0.950812 -0.042940 0.306779
vn 0.308460 0.050542 -0.949894
vn 0.308505 0.050581 -0.949877
vn 0.309001 0.050896 -0.949699
vn 0.309001 0.050896 -0.949699
vn 0.308505 0.050581 -0.949877
vn 0.309139 0.050881 -0.949655
vn 0.309001 0.050896 -0.949699
vn 0.309139 0.050881 -0.949655
vn 0.308684 0.050742 -0.949810
vn 0.308684 0.050742 -0.949810
vn 0.309139 0.050881 -0.949655
vn 0.308579 0.050639 -0.949850
vn 0.308684 0.050742 -0.949810
vn 0.308579 0.050639 -0.949850
vn 0.308710 0.050679 -0.949805
vn 0.308710 0.050679 -0.949805
vn 0.308579 0.050639 -0.949850
vn 0.308710 0.050688 -0.949805
vn 0.308710 0.050679 -0.949805
vn 0.308710 0.050688 -0.949805
vn 0.308656 0.050808 -0.949816
vn 0.308656 0.050808 -0.949816
vn 0.308710 0.050688 -0.949805
vn 0.308681 0.050790 -0.949809
vn 0.308656 0.050808 -0.949816
vn 0.308681 0.050790 -0.949809
vn 0.308789 0.050550 -0.949786
vn 0.308789 0.050550 -0.949786
vn 0.308681 0.050790 -0.949809
vn 0.308859 0.050491 -0.949767
vn 0.308787 0.050631 -0.949783
vn 0.308789 0.050550 -0.949786
vn 0.308766 0.050596 -0.949791
vn 0.308766 0.050596 -0.949791
vn 0.308789 0.050550 -0.949786
vn 0.308859 0.050491 -0.949767
vn 0.308837 0.050929 -0.949750
vn 0.308787 0.050631 -0.949783
vn 0.308820 0.050952 -0.949755
vn 0.308820 0.050952 -0.949755
vn 0.308787 0.050631 -0.949783
vn 0.308766 0.050596 -0.949791
vn 0.308739 0.050762 -0.949791
vn 0.308837 0.050929 -0.949750
vn 0.308743 0.050783 -0.949789
vn 0.308743 0.050783 -0.949789
vn 0.308837 0.050929 -0.949750
vn 0.308820 0.050952 -0.949755
vn 0.308770 0.050829 -0.949778
vn 0.308739 0.050762 -0.949791
vn 0.308789 0.050786 -0.949774
vn 0.308789 0.050786 -0.949774
vn 0.308739 0.050762 -0.949791
vn 0.308743 0.050783 -0.949789
vn 0.308760 0.050883 -0.949778
vn 0.308770 0.050829 -0.949778
vn 0.308783 0.050866 -0.949771
vn 0.308783 0.050866 -0.949771
vn 0.308770 0.050829 -0.949778
vn 0.308789 0.050786 -0.949774
vn 0.308685 0.050711 -0.949812
vn 0.308760 0.050883 -0.949778
vn 0.308679 0.050716 -0.949813
vn 0.308679 0.050716 -0.949813
vn 0.308760 0.050883 -0.949778
vn 0.308783 0.050866 -0.949771
vn 0.308759 0.050560 -0.949795
vn 0.308685 0.050711 -0.949812
vn 0.308708 0.050570 -0.949812
vn 0.308708 0.050570 -0.949812
vn 0.308685 0.050711 -0.949812
vn 0.308679 0.050716 -0.949813
vn 0.308759 0.050560 -0.949795
vn 0.308708 0.050570 -0.949812
vn 0.308460 0.050542 -0.949894
vn 0.308460 0.050542 -0.949894
vn 0.308708 0.050570 -0.949812
vn 0.308505 0.050581 -0.949877
vn -0.308684 -0.050578 0.949819
vn -0.308819 -0.050555 0.949776
vn -0.308260 -0.050665 0.949952
vn 0.308726 0.050649 -0.949802
vn 0.308783 0.050644 -0.949783
vn 0.308674 0.050566 -0.949823
vn -0.308738 -0.050579 0.949801
vn -0.309014 -0.050561 0.949713
vn -0.308819 -0.050555 0.949776
vn -0.308738 -0.050579 0.949801
vn -0.308819 -0.050555 0.949776
vn -0.308684 -0.050578 0.949819
vn -0.308756 -0.050643 0.949792
vn -0.308814 -0.050632 0.949774
vn -0.309014 -0.050561 0.949713
vn -0.308756 -0.050643 0.949792
vn -0.309014 -0.050561 0.949713
vn -0.308738 -0.050579 0.949801
vn -0.308688 -0.050673 0.949813
vn -0.308655 -0.050675 0.949823
vn -0.308814 -0.050632 0.949774
vn -0.308688 -0.050673 0.949813
vn -0.308814 -0.050632 0.949774
vn -0.308756 -0.050643 0.949792
vn -0.308696 -0.050650 0.949811
vn -0.308995 -0.050643 0.949714
vn -0.308655 -0.050675 0.949823
vn -0.308696 -0.050650 0.949811
vn -0.308655 -0.050675 0.949823
vn -0.308688 -0.050673 0.949813
vn -0.308396 -0.050772 0.949902
vn -0.308995 -0.050643 0.949714
vn -0.308605 -0.050770 0.949834
vn -0.308605 -0.050770 0.949834
vn -0.308995 -0.050643 0.949714
vn -0.308696 -0.050650 0.949811
vn 0.830921 -0.500342 0.243367
vn 0.521430 -0.844170 0.124452
vn 0.830935 -0.500325 0.243354
vn 0.830935 -0.500325 0.243354
vn 0.521430 -0.844170 0.124452
vn 0.521483 -0.844132 0.124483
vn 0.521430 -0.844170 0.124452
vn 0.091215 -0.995555 -0.023434
vn 0.521483 -0.844132 0.124483
vn 0.521483 -0.844132 0.124483
vn 0.091215 -0.995555 -0.023434
vn 0.091194 -0.995557 -0.023446
vn 0.091215 -0.995555 -0.023434
vn -0.358957 -0.918452 -0.166119
vn 0.091194 -0.995557 -0.023446
vn 0.091194 -0.995557 -0.023446
vn -0.358957 -0.918452 -0.166119
vn -0.359509 -0.918290 -0.165824
vn -0.727028 -0.630858 -0.271013
vn -0.726662 -0.631204 -0.271189
vn -0.358957 -0.918452 -0.166119
vn -0.358957 -0.918452 -0.166119
vn -0.726662 -0.631204 -0.271189
vn -0.359509 -0.918290 -0.165824
vn -0.928955 -0.198460 -0.312500
vn -0.928455 -0.199814 -0.313121
vn -0.727028 -0.630858 -0.271013
vn -0.727028 -0.630858 -0.271013
vn -0.928455 -0.199814 -0.313121
vn -0.726662 -0.631204 -0.271189
vn -0.928955 -0.198460 -0.312500
vn -0.917857 0.277861 -0.283430
vn -0.928455 -0.199814 -0.313121
vn -0.928455 -0.199814 -0.313121
vn -0.917857 0.277861 -0.283430
vn -0.918045 0.277402 -0.283270
vn -0.917857 0.277861 -0.283430
vn -0.696067 0.692680 -0.188907
vn -0.918045 0.277402 -0.283270
vn -0.918045 0.277402 -0.283270
vn -0.696067 0.692680 -0.188907
vn -0.695429 0.693281 -0.189051
vn -0.696067 0.692680 -0.188907
vn -0.314927 0.947689 -0.052029
vn -0.695429 0.693281 -0.189051
vn -0.695429 0.693281 -0.189051
vn -0.314927 0.947689 -0.052029
vn -0.314174 0.947926 -0.052255
vn -0.314927 0.947689 -0.052029
vn 0.138303 0.985592 0.097367
vn -0.314174 0.947926 -0.052255
vn -0.314174 0.947926 -0.052255
vn 0.138303 0.985592 0.097367
vn 0.138410 0.985569 0.097447
vn 0.138303 0.985592 0.097367
vn 0.560173 0.797458 0.224203
vn 0.138410 0.985569 0.097447
vn 0.138410 0.985569 0.097447
vn 0.560173 0.797458 0.224203
vn 0.559937 0.797604 0.224273
vn 0.560173 0.797458 0.224203
vn 0.853414 0.426315 0.299901
vn 0.559937 0.797604 0.224273
vn 0.559937 0.797604 0.224273
vn 0.853414 0.426315 0.299901
vn 0.853149 0.426737 0.300055
vn 0.853414 0.426315 0.299901
vn 0.950852 -0.041439 0.306862
vn 0.853149 0.426737 0.300055
vn 0.853149 0.426737 0.300055
vn 0.950852 -0.041439 0.306862
vn 0.950858 -0.041455 0.306841
vn 0.950852 -0.041439 0.306862
vn 0.830921 -0.500342 0.243367
vn 0.950858 -0.041455 0.306841
vn 0.950858 -0.041455 0.306841
vn 0.830921 -0.500342 0.243367
vn 0.830935 -0.500325 0.243354
vn 0.308809 0.050698 -0.949772
vn 0.308692 0.050653 -0.949812
vn 0.308783 0.050644 -0.949783
vn 0.308809 0.050698 -0.949772
vn 0.308783 0.050644 -0.949783
vn 0.308726 0.050649 -0.949802
vn 0.308692 0.050653 -0.949812
vn 0.308619 0.050638 -0.949837
vn 0.308709 0.050650 -0.949807
vn 0.308809 0.050698 -0.949772
vn 0.308619 0.050638 -0.949837
vn 0.308692 0.050653 -0.949812
vn 0.308709 0.050650 -0.949807
vn 0.308593 0.050608 -0.949847
vn 0.308803 0.050653 -0.949776
vn 0.308709 0.050650 -0.949807
vn 0.308619 0.050638 -0.949837
vn 0.308593 0.050608 -0.949847
vn 0.308803 0.050653 -0.949776
vn 0.308739 0.050626 -0.949799
vn 0.308853 0.050650 -0.949760
vn 0.308803 0.050653 -0.949776
vn 0.308593 0.050608 -0.949847
vn 0.308739 0.050626 -0.949799
vn 0.308853 0.050650 -0.949760
vn 0.309142 0.050801 -0.949658
vn 0.308419 0.050655 -0.949901
vn 0.308853 0.050650 -0.949760
vn 0.308739 0.050626 -0.949799
vn 0.309142 0.050801 -0.949658
s off
g scene:Organizer scene:pasted__pCube1 scene:polySurface2 scene:polySurface3 polySurface1 scene:polySurface1
usemtl scene:lambert3SG
f 15/1/1 14/2/2 2/3/3
f 2/3/4 14/2/5 1/4/6
f 16/5/7 15/1/8 3/6/9
f 3/6/10 15/1/11 2/3/12
f 17/7/13 16/8/14 4/9/15
f 4/9/16 16/8/17 3/10/18
f 18/11/19 17/7/20 5/12/21
f 5/12/22 17/7/23 4/9/24
f 19/13/25 18/11/26 6/14/27
f 6/14/28 18/11/29 5/12/30
f 20/15/31 19/13/32 7/16/33
f 7/16/34 19/13/35 6/14/36
f 21/17/37 20/15/38 8/18/39
f 8/18/40 20/15/41 7/16/42
f 22/19/43 21/17/44 9/20/45
f 9/20/46 21/17/47 8/18/48
f 23/21/49 22/19/50 10/22/51
f 10/22/52 22/19/53 9/20/54
f 24/23/55 23/21/56 11/24/57
f 11/24/58 23/21/59 10/22/60
f 25/25/61 24/23/62 12/26/63
f 12/26/64 24/23/65 11/24/66
g scene:Map polySurface1 scene:polySurface1
usemtl scene:lambert6SG
f 26/27/67 25/25/68 13/28/69
f 13/28/70 25/25/71 12/26/72
f 1/4/73 14/2/74 13/28/75
f 13/28/76 14/2/77 26/27/78
f 1/29/79 34/30/80 2/31/81
f 2/31/82 34/30/83 35/32/84
f 2/31/85 35/32/86 3/33/87
f 3/33/88 35/32/89 36/34/90
f 3/33/91 36/34/92 4/35/93
f 4/35/94 36/34/95 37/36/96
f 4/35/97 37/36/98 5/37/99
f 5/37/100 37/36/101 38/38/102
f 5/37/103 38/38/104 6/39/105
f 6/39/106 38/38/107 39/40/108
f 7/41/109 6/39/110 27/42/111
f 27/42/112 6/39/113 39/40/114
f 8/43/115 7/41/116 28/44/117
f 28/44/118 7/41/119 27/42/120
f 9/45/121 8/43/122 29/46/123
f 29/46/124 8/43/125 28/44/126
f 10/47/127 9/45/128 30/48/129
f 30/48/130 9/45/131 29/46/132
f 11/49/133 10/47/134 31/50/135
f 31/50/136 10/47/137 30/48/138
f 12/51/139 11/49/140 32/52/141
f 32/52/142 11/49/143 31/50/144
f 13/53/145 12/51/146 33/54/147
f 33/54/148 12/51/149 32/52/150
f 13/53/151 33/54/152 1/55/153
f 1/55/154 33/54/155 34/56/156
g scene:Desk scene:group scene:pasted__pPlane1 scene:polySurface4 scene:polySurface5 polySurface1 scene:polySurface1
usemtl scene:lambert2SG
f 20/57/157 18/58/158 19/59/159
f 52/60/160 50/61/161 51/62/162
f 21/63/163 17/64/164 18/58/165
f 21/63/166 18/58/167 20/57/168
f 22/65/169 16/66/170 17/64/171
f 22/65/172 17/64/173 21/63/174
f 23/67/175 15/68/176 16/66/177
f 23/67/178 16/66/179 22/65/180
f 24/69/181 14/70/182 15/68/183
f 24/69/184 15/68/185 23/67/186
f 26/71/187 14/70/188 25/72/189
f 25/72/190 14/70/191 24/69/192
g scene:Desk scene:group scene:pasted__pPlane1 scene:polySurface5 scene:polySurface6 scene:polySurface7 polySurface1 scene:polySurface1
f 32/73/193 31/74/194 41/75/195
f 41/75/196 31/74/197 40/76/198
f 31/74/199 30/77/200 40/76/201
f 40/76/202 30/77/203 42/78/204
f 30/77/205 29/79/206 42/78/207
f 42/78/208 29/79/209 43/80/210
g scene:Desk scene:group scene:pasted__pPlane1 scene:polySurface5 scene:polySurface7 scene:polySurface8 scene:polySurface9 polySurface1 scene:polySurface1
f 28/81/211 44/82/212 29/79/213
f 29/79/214 44/82/215 43/80/216
f 27/83/217 45/84/218 28/81/219
f 28/81/220 45/84/221 44/82/222
f 27/83/223 39/85/224 45/84/225
f 45/84/226 39/85/227 46/86/228
g scene:Desk scene:group scene:pasted__pPlane1 scene:polySurface4 scene:polySurface5 polySurface1 scene:polySurface1
f 39/85/229 38/87/230 46/86/231
f 46/86/232 38/87/233 47/88/234
f 38/87/235 37/89/236 47/88/237
f 47/88/238 37/89/239 48/90/240
f 37/89/241 36/91/242 48/90/243
f 48/90/244 36/91/245 49/92/246
g scene:Desk scene:group scene:pasted__pPlane1 scene:polySurface5 scene:polySurface6 scene:polySurface7 polySurface1 scene:polySurface1
f 36/91/247 35/93/248 49/92/249
f 49/92/250 35/93/251 50/94/252
f 35/93/253 34/95/254 50/94/255
f 50/94/256 34/95/257 51/96/258
f 34/95/259 33/97/260 51/96/261
f 51/96/262 33/97/263 52/98/264
f 33/97/265 32/99/266 52/98/267
g scene:Desk scene:group scene:pasted__pPlane1 scene:polySurface5 scene:polySurface7 scene:polySurface8 scene:polySurface9 polySurface1 scene:polySurface1
f 52/98/268 32/99/269 41/100/270
f 41/101/271 49/102/272 50/61/273
f 41/101/274 50/61/275 52/60/276
f 49/102/277 40/103/278 48/104/279
g scene:Desk scene:group scene:pasted__pPlane1 scene:polySurface4 scene:polySurface5 polySurface1 scene:polySurface1
f 41/101/280 40/103/281 49/102/282
f 48/104/283 42/105/284 47/106/285
f 48/104/286 40/103/287 42/105/288
f 47/106/289 43/107/290 46/108/291
f 47/106/292 42/105/293 43/107/294
f 46/108/295 44/109/296 45/110/297
g scene:Lamp1 polySurface1 scene:polySurface1
usemtl scene:lambert4SG
f 46/108/298 43/107/299 44/109/300
g scene:default1
v 94.333194 5.809223 -25.217496
v 94.494753 5.805527 -24.701635
v 83.649845 4.721056 -21.003697
v 83.847640 4.721059 -20.502128
v 83.602608 5.257823 -20.985055
v 83.800463 5.257826 -20.483511
v 94.332359 6.350704 -25.217164
v 94.447442 6.342270 -24.682976
v 94.405412 5.696579 -24.956187
v 94.374243 6.454822 -24.943884
v 83.691849 5.366760 -20.730476
v 83.758466 4.612125 -20.756737
v 83.588495 4.989435 -21.089855
v 82.669816 4.881950 -20.327346
v 83.861732 4.989439 -20.397321
v 94.508765 6.073904 -24.596803
v 94.485948 6.085492 -24.987952
v 94.340784 6.084621 -25.330852
vt 0.665192 0.109899
vt 0.246937 0.109731
vt 0.666043 0.100048
vt 0.246849 0.099879
vt 0.010527 0.300006
vt 0.077815 0.313770
vt 0.009150 0.316588
vt 0.244999 0.068163
vt 0.666523 0.068332
vt 0.246389 0.078796
vt 0.666518 0.078965
vt 0.007270 0.038132
vt 0.031903 0.036236
vt 0.014660 0.054726
vt 0.032136 0.060725
vt 0.666515 0.089506
vt 0.246384 0.089337
vt 0.242250 0.046987
vt 0.666532 0.047158
vt 0.243132 0.057530
vt 0.666527 0.057700
vt 0.049125 0.053195
vt 0.055369 0.036091
vt 0.015773 0.284216
vt 0.244973 0.036447
vt 0.246410 0.025815
vt 0.666536 0.036617
vt 0.666538 0.025984
vt 0.036535 0.258832
vt 0.024745 0.270371
vt 0.011964 0.332843
vt 0.018278 0.348084
vt 0.031893 0.011155
vt 0.014837 0.017578
vt 0.007373 0.034024
vt 0.048899 0.018455
vt 0.028298 0.361368
vt 0.041176 0.371905
vn 0.087759 -0.995541 -0.034593
vn 0.081405 -0.995393 -0.050654
vn 0.219318 -0.922432 0.317835
vn 0.219318 -0.922432 0.317835
vn 0.081405 -0.995393 -0.050654
vn 0.219318 -0.922432 0.317834
vn -0.375549 0.914884 0.148157
vn -0.926098 -0.094305 0.365308
vn -0.104142 0.632238 0.767743
vn -0.102228 0.994758 -0.002300
vn -0.088000 0.995540 0.033985
vn 0.056717 0.922424 0.381992
vn 0.056717 0.922424 0.381992
vn -0.088000 0.995540 0.033985
vn 0.056699 0.922435 0.381966
vn 0.994440 0.089586 -0.055357
vn 0.969428 0.046229 -0.240983
vn 0.962579 0.254608 -0.092826
vn 0.962579 0.254608 -0.092826
vn 0.969428 0.046229 -0.240983
vn 0.932296 0.305153 -0.194178
vn 0.366924 -0.000080 0.930251
vn 0.366918 0.000007 0.930253
vn 0.311669 0.354282 0.881673
vn 0.311669 0.354282 0.881673
vn 0.366918 0.000007 0.930253
vn 0.311663 0.354326 0.881657
vn -0.368831 0.022793 -0.929217
vn -0.366985 0.000799 -0.930226
vn -0.374123 0.354328 -0.857020
vn -0.374123 0.354328 -0.857020
vn -0.366985 0.000799 -0.930226
vn -0.374122 0.354318 -0.857025
vn 0.932296 0.305153 -0.194178
vn 0.969428 0.046229 -0.240983
vn 0.913325 0.253375 -0.318807
vn 0.913325 0.253375 -0.318807
vn 0.969428 0.046229 -0.240983
vn 0.920879 0.000490 -0.389848
vn -0.088000 0.995540 0.033985
vn -0.102228 0.994758 -0.002300
vn -0.219321 0.922430 -0.317840
vn -0.219321 0.922430 -0.317840
vn -0.102228 0.994758 -0.002300
vn -0.219316 0.922435 -0.317829
vn -0.600194 0.632289 -0.489876
vn -0.926098 -0.094305 0.365308
vn -0.375549 0.914884 0.148157
vn -0.056701 -0.922441 -0.381952
vn 0.081405 -0.995393 -0.050654
vn -0.056694 -0.922441 -0.381954
vn -0.056694 -0.922441 -0.381954
vn 0.081405 -0.995393 -0.050654
vn 0.087759 -0.995541 -0.034593
vn -0.483435 -0.692228 -0.535828
vn -0.926098 -0.094305 0.365308
vn -0.636375 -0.029196 -0.770827
vn 0.061203 -0.029162 0.997699
vn -0.926098 -0.094305 0.365308
vn 0.012537 -0.692160 0.721635
vn 0.374124 -0.354298 0.857032
vn 0.366918 0.000007 0.930253
vn 0.374123 -0.354327 0.857021
vn 0.374123 -0.354327 0.857021
vn 0.366918 0.000007 0.930253
vn 0.366924 -0.000080 0.930251
vn 0.931447 -0.216781 -0.292255
vn 0.969428 0.046229 -0.240983
vn 0.980378 -0.125035 -0.152397
vn 0.980378 -0.125035 -0.152397
vn 0.969428 0.046229 -0.240983
vn 0.994440 0.089586 -0.055357
vn 0.920879 0.000490 -0.389848
vn 0.969428 0.046229 -0.240983
vn 0.909673 -0.200964 -0.363468
vn 0.909673 -0.200964 -0.363468
vn 0.969428 0.046229 -0.240983
vn 0.931447 -0.216781 -0.292255
vn -0.368831 0.022793 -0.929217
vn -0.311663 -0.354316 -0.881661
vn -0.366985 0.000799 -0.930226
vn -0.366985 0.000799 -0.930226
vn -0.311663 -0.354316 -0.881661
vn -0.311667 -0.354278 -0.881675
vn -0.636375 -0.029196 -0.770827
vn -0.926098 -0.094305 0.365308
vn -0.600194 0.632289 -0.489876
vn 0.012537 -0.692160 0.721635
vn -0.926098 -0.094305 0.365308
vn -0.209008 -0.974435 0.082412
vn -0.483435 -0.692228 -0.535828
vn -0.209008 -0.974435 0.082412
vn -0.926098 -0.094305 0.365308
vn -0.104142 0.632238 0.767743
vn -0.926098 -0.094305 0.365308
vn 0.061203 -0.029162 0.997699
s off
g scene:Organizer scene:pasted__pCube1 scene:polySurface2 scene:polySurface3 scene:polySurface1 polySurface3 polySurface2
usemtl scene:lambert3SG
f 64/111/301 61/112/302 56/113/303
f 56/113/304 61/112/305 54/114/306
f 63/115/307 66/116/308 58/117/309
f 62/118/310 63/119/311 60/120/312
f 60/120/313 63/119/314 58/121/315
f 68/122/316 69/123/317 60/124/318
f 60/124/319 69/123/320 62/125/321
f 67/126/322 68/127/323 58/121/324
f 58/121/325 68/127/326 60/120/327
f 70/128/328 65/129/329 59/130/330
f 59/130/331 65/129/332 57/131/333
f 62/125/334 69/123/335 59/132/336
f 59/132/337 69/123/338 70/133/339
f 63/119/340 62/118/341 57/131/342
f 57/131/343 62/118/344 59/130/345
f 57/134/346 66/116/347 63/115/348
f 53/135/349 61/136/350 55/137/351
f 55/137/352 61/136/353 64/138/354
f 55/139/355 66/116/356 65/140/357
f 67/141/358 66/116/359 56/142/360
f 54/114/361 68/127/362 56/113/363
f 56/113/364 68/127/365 67/126/366
g scene:Map scene:polySurface1 polySurface3 polySurface2
usemtl scene:lambert6SG
f 61/143/367 69/123/368 54/144/369
f 54/144/370 69/123/371 68/145/372
f 70/133/373 69/123/374 53/146/375
f 53/146/376 69/123/377 61/143/378
f 70/128/379 53/135/380 65/129/381
f 65/129/382 53/135/383 55/137/384
f 65/140/385 66/116/386 57/134/387
f 56/142/388 66/116/389 64/147/390
f 55/148/391 64/147/392 66/116/393
f 58/117/394 66/116/395 67/141/396
