# This file uses centimeters as units for non-parametric coordinates.

mtllib scaledroom.mtl
g default
v -342.961779 -112.842387 -116.347476
v 347.759223 -112.842387 -116.347476
v -342.961779 224.044585 -116.347476
v 347.759223 224.044585 -116.347476
v -342.961779 -112.842387 95.146707
v 347.759223 -112.842387 95.146707
vt 0.968970 0.483366
vt 0.969018 0.945939
vt 0.020556 0.483462
vt 0.020603 0.946035
vt 0.022026 0.085139
vt 0.970440 0.084867
vt 0.022109 0.375537
vt 0.970523 0.375265
vn 0.000000 0.000000 1.000000
vn 0.000000 0.000000 1.000000
vn 0.000000 0.000000 1.000000
vn 0.000000 0.000000 1.000000
vn 0.000000 0.000000 1.000000
vn 0.000000 0.000000 1.000000
vn 0.000000 1.000000 0.000000
vn 0.000000 1.000000 0.000000
vn 0.000000 1.000000 0.000000
vn 0.000000 1.000000 0.000000
vn 0.000000 1.000000 0.000000
vn 0.000000 1.000000 0.000000
s off
g pPlane3
usemtl initialShadingGroup
f 2/1/1 4/2/2 1/3/3
f 1/3/4 4/2/5 3/4/6
f 2/5/7 1/6/8 6/7/9
f 6/7/10 1/6/11 5/8/12
