# This file uses centimeters as units for non-parametric coordinates.

mtllib scaledMap.mtl
g default
v 66.550488 38.552027 30.818884
v 74.557316 38.552027 28.779983
v 83.225705 39.049221 30.818884
v 90.298649 28.840790 30.056837
v 90.896451 19.625046 29.194471
v 92.779629 7.606950 30.818884
v 63.252987 38.259431 14.976358
v 71.287610 38.552027 12.719814
v 83.086415 38.745591 14.976358
v 88.819279 28.840790 14.976358
v 90.398060 19.625046 14.107260
v 91.300259 8.067548 14.976358
v 61.782101 39.646725 -0.866166
v 71.287610 41.491957 -3.378772
v 83.762440 41.196931 -0.866166
v 90.298649 28.840790 -0.866166
v 92.358403 19.625046 -1.735267
v 92.394917 10.775766 -0.866166
v 57.972798 38.552027 -16.708698
v 67.478306 38.552027 -19.043894
v 82.950367 38.552027 -16.708698
v 86.489346 28.840790 -16.025795
v 88.068120 19.625046 -17.192951
v 88.970318 9.438825 -16.708698
vt 0.152186 0.201677
vt 0.272723 0.227651
vt 0.232796 0.468976
vt 0.111835 0.439850
vt 0.401056 0.192430
vt 0.407625 0.428784
vt 0.586451 0.200414
vt 0.578321 0.426314
vt 0.723699 0.217038
vt 0.717486 0.442161
vt 0.905627 0.196676
vt 0.890692 0.433706
vt 0.243411 0.712883
vt 0.098700 0.677665
vt 0.427682 0.667414
vt 0.483347 0.434518
vt 0.652814 0.455495
vt 0.634622 0.692256
vt 0.790505 0.481164
vt 0.773631 0.718793
vt 0.963961 0.482164
vt 0.906171 0.715505
vt 0.096909 0.687310
vt 0.198853 0.953317
vt 0.055773 0.927171
vt 0.427776 0.907278
vt 0.581384 0.919043
vt 0.735907 0.955228
vt 0.599082 0.922820
vt 0.909040 0.958143
vt 0.756382 0.957516
vn -0.019611 0.999795 -0.005133
vn -0.027098 0.999617 -0.005663
vn -0.047521 0.997206 0.057629
vn -0.044222 0.995098 0.088456
vn 0.517418 0.855041 -0.034415
vn 0.569506 0.819066 0.069244
vn -0.027098 0.999617 -0.005663
vn -0.044222 0.995098 0.088456
vn 0.517418 0.855041 -0.034415
vn 0.928062 0.367971 -0.057435
vn 0.569506 0.819066 0.069244
vn 0.930967 0.364197 0.025710
vn 0.928062 0.367971 -0.057435
vn 0.991238 0.116021 -0.063141
vn 0.930967 0.364197 0.025710
vn 0.993001 0.116616 0.018729
vn 0.991936 0.110660 -0.061780
vn 0.994080 0.102187 -0.036922
vn 0.991238 0.116021 -0.063141
vn 0.993001 0.116616 0.018729
vn -0.047521 0.997206 0.057629
vn -0.044222 0.995098 0.088456
vn -0.102884 0.994529 0.018062
vn -0.013660 0.999628 -0.023627
vn 0.569506 0.819066 0.069244
vn 0.186149 0.982433 -0.013219
vn -0.044222 0.995098 0.088456
vn -0.013660 0.999628 -0.023627
vn 0.930967 0.364197 0.025710
vn 0.937357 0.344763 -0.049997
vn 0.569506 0.819066 0.069244
vn 0.186149 0.982433 -0.013219
vn 0.930967 0.364197 0.025710
vn 0.993001 0.116616 0.018729
vn 0.937357 0.344763 -0.049997
vn 0.990160 0.120678 -0.070845
vn 0.994080 0.102187 -0.036922
vn 0.997471 0.044194 -0.055672
vn 0.993001 0.116616 0.018729
vn 0.990160 0.120678 -0.070845
vn -0.102884 0.994529 0.018062
vn -0.013660 0.999628 -0.023627
vn -0.120703 0.987907 -0.097318
vn -0.031140 0.989123 -0.143754
vn 0.186149 0.982433 -0.013219
vn 0.635464 0.745430 -0.201295
vn -0.013660 0.999628 -0.023627
vn -0.031140 0.989123 -0.143754
vn 0.937357 0.344763 -0.049997
vn 0.923814 0.323146 -0.205289
vn 0.186149 0.982433 -0.013219
vn 0.635464 0.745430 -0.201295
vn 0.937357 0.344763 -0.049997
vn 0.990160 0.120678 -0.070845
vn 0.923814 0.323146 -0.205289
vn 0.961594 0.121502 -0.246118
vn 0.997471 0.044194 -0.055672
vn 0.970176 0.030749 -0.240443
vn 0.990160 0.120678 -0.070845
vn 0.961594 0.121502 -0.246118
s 1
g Map
usemtl initialShadingGroup
f 1/1/1 2/2/2 7/4/3
f 7/4/3 2/2/2 8/3/4
s 2
f 3/5/5 9/6/6 2/2/7
f 2/2/7 9/6/6 8/3/8
s 3
f 3/5/9 4/7/10 9/6/11
f 9/6/11 4/7/10 10/8/12
s 4
f 4/7/13 5/9/14 10/8/15
f 10/8/15 5/9/14 11/10/16
s 5
f 6/11/17 12/12/18 5/9/19
f 5/9/19 12/12/18 11/10/20
s 6
f 7/4/21 8/3/22 13/14/23
f 13/14/23 8/3/22 14/13/24
s 7
f 9/6/25 15/15/26 8/3/27
f 8/3/27 15/15/26 14/13/28
s 8
f 10/17/29 16/18/30 9/16/31
f 9/16/31 16/18/30 15/15/32
s 9
f 10/17/33 11/19/34 16/18/35
f 16/18/35 11/19/34 17/20/36
s 10
f 12/21/37 18/22/38 11/19/39
f 11/19/39 18/22/38 17/20/40
s 11
f 13/23/41 14/13/42 19/25/43
f 19/25/43 14/13/42 20/24/44
s 12
f 15/15/45 21/26/46 14/13/47
f 14/13/47 21/26/46 20/24/48
s 13
f 16/18/49 22/27/50 15/15/51
f 15/15/51 22/27/50 21/26/52
s 14
f 16/18/53 17/20/54 22/29/55
f 22/29/55 17/20/54 23/28/56
s 15
f 18/22/57 24/30/58 17/20/59
f 17/20/59 24/30/58 23/31/60
g default
v 66.550488 38.552027 30.818884
v 74.557316 38.552027 28.779983
v 83.225705 39.049221 30.818884
v 90.298649 28.840790 30.056837
v 90.896451 19.625046 29.194471
v 92.779629 7.606950 30.818884
v 63.252987 38.259431 14.976358
v 71.287610 38.552027 12.719814
v 83.086415 38.745591 14.976358
v 88.819279 28.840790 14.976358
v 90.398060 19.625046 14.107260
v 91.300259 8.067548 14.976358
v 61.782101 39.646725 -0.866166
v 71.287610 41.491957 -3.378772
v 83.762440 41.196931 -0.866166
v 90.298649 28.840790 -0.866166
v 92.358403 19.625046 -1.735267
v 92.394917 10.775766 -0.866166
v 57.972798 38.552027 -16.708698
v 67.478306 38.552027 -19.043894
v 82.950367 38.552027 -16.708698
v 86.489346 28.840790 -16.025795
v 88.068120 19.625046 -17.192951
v 88.970318 9.438825 -16.708698
vt 0.152186 0.201677
vt 0.272723 0.227651
vt 0.232796 0.468976
vt 0.111835 0.439850
vt 0.401056 0.192430
vt 0.407625 0.428784
vt 0.586451 0.200414
vt 0.578321 0.426314
vt 0.723699 0.217038
vt 0.717486 0.442161
vt 0.905627 0.196676
vt 0.890692 0.433706
vt 0.243411 0.712883
vt 0.098700 0.677665
vt 0.427682 0.667414
vt 0.483347 0.434518
vt 0.652814 0.455495
vt 0.634622 0.692256
vt 0.790505 0.481164
vt 0.773631 0.718793
vt 0.963961 0.482164
vt 0.906171 0.715505
vt 0.096909 0.687310
vt 0.198853 0.953317
vt 0.055773 0.927171
vt 0.427776 0.907278
vt 0.581384 0.919043
vt 0.735907 0.955228
vt 0.599082 0.922820
vt 0.909040 0.958143
vt 0.756382 0.957516
vn -0.019611 0.999795 -0.005133
vn -0.027098 0.999617 -0.005663
vn -0.047521 0.997206 0.057629
vn -0.044222 0.995098 0.088456
vn 0.517418 0.855041 -0.034415
vn 0.569506 0.819066 0.069244
vn -0.027098 0.999617 -0.005663
vn -0.044222 0.995098 0.088456
vn 0.517418 0.855041 -0.034415
vn 0.928062 0.367971 -0.057435
vn 0.569506 0.819066 0.069244
vn 0.930967 0.364197 0.025710
vn 0.928062 0.367971 -0.057435
vn 0.991238 0.116021 -0.063141
vn 0.930967 0.364197 0.025710
vn 0.993001 0.116616 0.018729
vn 0.991936 0.110660 -0.061780
vn 0.994080 0.102187 -0.036922
vn 0.991238 0.116021 -0.063141
vn 0.993001 0.116616 0.018729
vn -0.047521 0.997206 0.057629
vn -0.044222 0.995098 0.088456
vn -0.102884 0.994529 0.018062
vn -0.013660 0.999628 -0.023627
vn 0.569506 0.819066 0.069244
vn 0.186149 0.982433 -0.013219
vn -0.044222 0.995098 0.088456
vn -0.013660 0.999628 -0.023627
vn 0.930967 0.364197 0.025710
vn 0.937357 0.344763 -0.049997
vn 0.569506 0.819066 0.069244
vn 0.186149 0.982433 -0.013219
vn 0.930967 0.364197 0.025710
vn 0.993001 0.116616 0.018729
vn 0.937357 0.344763 -0.049997
vn 0.990160 0.120678 -0.070845
vn 0.994080 0.102187 -0.036922
vn 0.997471 0.044194 -0.055672
vn 0.993001 0.116616 0.018729
vn 0.990160 0.120678 -0.070845
vn -0.102884 0.994529 0.018062
vn -0.013660 0.999628 -0.023627
vn -0.120703 0.987907 -0.097318
vn -0.031140 0.989123 -0.143754
vn 0.186149 0.982433 -0.013219
vn 0.635464 0.745430 -0.201295
vn -0.013660 0.999628 -0.023627
vn -0.031140 0.989123 -0.143754
vn 0.937357 0.344763 -0.049997
vn 0.923814 0.323146 -0.205289
vn 0.186149 0.982433 -0.013219
vn 0.635464 0.745430 -0.201295
vn 0.937357 0.344763 -0.049997
vn 0.990160 0.120678 -0.070845
vn 0.923814 0.323146 -0.205289
vn 0.961594 0.121502 -0.246118
vn 0.997471 0.044194 -0.055672
vn 0.970176 0.030749 -0.240443
vn 0.990160 0.120678 -0.070845
vn 0.961594 0.121502 -0.246118
s 1
g Map
f 25/32/61 26/33/62 31/35/63
f 31/35/63 26/33/62 32/34/64
s 2
f 27/36/65 33/37/66 26/33/67
f 26/33/67 33/37/66 32/34/68
s 3
f 27/36/69 28/38/70 33/37/71
f 33/37/71 28/38/70 34/39/72
s 4
f 28/38/73 29/40/74 34/39/75
f 34/39/75 29/40/74 35/41/76
s 5
f 30/42/77 36/43/78 29/40/79
f 29/40/79 36/43/78 35/41/80
s 6
f 31/35/81 32/34/82 37/45/83
f 37/45/83 32/34/82 38/44/84
s 7
f 33/37/85 39/46/86 32/34/87
f 32/34/87 39/46/86 38/44/88
s 8
f 34/48/89 40/49/90 33/47/91
f 33/47/91 40/49/90 39/46/92
s 9
f 34/48/93 35/50/94 40/49/95
f 40/49/95 35/50/94 41/51/96
s 10
f 36/52/97 42/53/98 35/50/99
f 35/50/99 42/53/98 41/51/100
s 11
f 37/54/101 38/44/102 43/56/103
f 43/56/103 38/44/102 44/55/104
s 12
f 39/46/105 45/57/106 38/44/107
f 38/44/107 45/57/106 44/55/108
s 13
f 40/49/109 46/58/110 39/46/111
f 39/46/111 46/58/110 45/57/112
s 14
f 40/49/113 41/51/114 46/60/115
f 46/60/115 41/51/114 47/59/116
s 15
f 42/53/117 48/61/118 41/51/119
f 41/51/119 48/61/118 47/62/120
