# This file uses centimeters as units for non-parametric coordinates.

mtllib scaledOrganizer.mtl
g scaledOrganizer_default1
v -24.230580 53.545294 14.310114
v -24.230580 53.545294 -43.387005
v -24.230580 54.793837 14.310114
v -24.230580 54.793837 -43.387005
v -74.752524 54.793837 14.310114
v -74.752524 54.793837 -43.387005
v -74.752524 53.545294 14.310114
v -74.752524 53.545294 -43.387005
v -29.030166 53.545294 -40.502148
v -26.756681 53.545294 -40.502148
v -72.226431 53.545294 -40.502148
v -69.952940 53.545294 -40.502148
v -26.756678 53.545294 11.425256
v -29.030169 53.545294 11.425256
v -69.952944 53.545294 11.425256
v -72.226431 53.545294 11.425256
v -72.226431 37.623937 -40.502148
v -69.952940 37.623937 -40.502148
v -69.952944 37.623937 11.425256
v -72.226431 37.623937 11.425256
v -29.030166 37.623937 -40.502148
v -26.756681 37.623937 -40.502148
v -26.756678 37.623937 11.425256
v -29.030169 37.623937 11.425256
vt 0.656459 0.977910
vt 0.644649 0.484329
vt 0.633382 0.028375
vt 0.112672 0.484329
vt 0.135750 0.521956
vt 0.112673 0.017107
vt 0.836311 0.488495
vt 0.836313 0.977651
vt 0.675248 0.494307
vt 0.675247 0.983463
vt 0.836311 0.509013
vt 0.836311 0.019857
vt 0.675248 0.514825
vt 0.675248 0.025669
vt 0.818937 0.025669
vt 0.818937 0.494307
vt 0.980000 0.019857
vt 0.980000 0.488495
vt 0.633381 0.484329
vt 0.112673 0.028375
vt 0.818937 0.514825
vt 0.818935 0.983463
vt 0.980000 0.509013
vt 0.980001 0.977651
vt 0.633381 0.495597
vt 0.112672 0.495597
vt 0.656459 0.521956
vt 0.633382 0.017107
vt 0.644650 0.028375
vt 0.135750 0.977910
vn 1.000000 0.000000 0.000000
vn 1.000000 0.000000 0.000000
vn 1.000000 0.000000 0.000000
vn 1.000000 0.000000 0.000000
vn 0.000000 1.000000 0.000000
vn 0.000000 1.000000 0.000000
vn 0.000000 1.000000 0.000000
vn 0.000000 1.000000 0.000000
vn -1.000000 0.000000 0.000000
vn -1.000000 0.000000 0.000000
vn -1.000000 0.000000 0.000000
vn -1.000000 0.000000 0.000000
vn 0.000000 0.000000 1.000000
vn 0.000000 0.000000 1.000000
vn 0.000000 0.000000 1.000000
vn 0.000000 0.000000 1.000000
vn 1.000000 0.000000 0.000000
vn 1.000000 0.000000 0.000000
vn 1.000000 0.000000 0.000000
vn 1.000000 0.000000 0.000000
vn 0.000000 0.000000 1.000000
vn 0.000000 0.000000 1.000000
vn 0.000000 0.000000 1.000000
vn 0.000000 0.000000 1.000000
vn -1.000000 0.000000 0.000000
vn -1.000000 0.000000 0.000000
vn -1.000000 0.000000 0.000000
vn -1.000000 0.000000 0.000000
vn 1.000000 0.000000 0.000000
vn 1.000000 0.000000 0.000000
vn 1.000000 0.000000 0.000000
vn 1.000000 0.000000 0.000000
vn 0.000000 0.000000 1.000000
vn 0.000000 0.000000 1.000000
vn 0.000000 0.000000 1.000000
vn 0.000000 0.000000 1.000000
vn -1.000000 0.000000 -0.000000
vn -1.000000 0.000000 -0.000000
vn -1.000000 0.000000 -0.000000
vn -1.000000 0.000000 -0.000000
vn 0.000000 -1.000000 0.000000
vn 0.000000 -1.000000 0.000000
vn 0.000000 -1.000000 0.000000
vn 0.000000 -1.000000 0.000000
s 1
g scaledOrganizer_Organizer scaledOrganizer_pasted__pCube1 scaledOrganizer_polySurface2 scaledOrganizer_polySurface3 scaledOrganizer_polySurface1
usemtl initialShadingGroup
f 3/19/1 1/25/2 4/4/3
f 4/4/3 1/25/2 2/26/4
s 2
f 4/4/5 6/20/6 3/19/7
f 3/19/7 6/20/6 5/3/8
s 3
f 7/28/9 5/3/10 8/6/11
f 8/6/11 5/3/10 6/20/12
s 4
f 5/3/13 7/29/14 3/19/15
f 3/19/15 7/29/14 1/2/16
s 5
f 12/10/17 15/13/18 18/22/19
f 18/22/19 15/13/18 19/21/20
s 6
f 15/13/21 16/9/22 19/21/23
f 19/21/23 16/9/22 20/16/24
s 7
f 16/9/25 11/14/26 20/16/27
f 20/16/27 11/14/26 17/15/28
s 8
f 10/8/29 13/11/30 22/24/31
f 22/24/31 13/11/30 23/23/32
s 9
f 13/11/33 14/7/34 23/23/35
f 23/23/35 14/7/34 24/18/36
s 10
f 14/7/37 9/12/38 24/18/39
f 24/18/39 9/12/38 21/17/40
s 11
f 2/1/41 1/30/42 8/27/43
f 8/27/43 1/30/42 7/5/44
