# This file uses centimeters as units for non-parametric coordinates.

mtllib table.mtl
g default
v -13.168264 -40.577724 12.739420
v -63.678154 -40.577724 12.739420
v -13.168264 -40.577724 -63.936592
v -63.678154 -40.577724 14.869314
v -70.092133 -40.577724 14.869314
v -70.092133 -40.577724 -66.066483
v -70.092133 -40.577724 -60.102791
v -70.092133 -40.577724 8.905619
v -66.885147 -40.577724 8.905619
v -66.885147 -40.577724 -60.102791
g organiser1:default1
v -63.678154 -113.248657 12.739420
v -13.168264 -113.248657 12.739420
v -13.168264 -113.248657 -63.936592
v -70.092133 -113.248657 14.869314
v -63.678154 -113.248657 14.869314
v -66.885147 -113.248657 8.905619
v -70.092133 -113.248657 8.905619
v -70.092133 -113.248672 -60.102791
v -66.885147 -113.248672 -60.102791
v -70.092133 -113.248672 -66.066483
g default
v 88.653313 -40.577724 16.999201
v -71.695618 -40.577724 16.999201
v 88.653313 -40.577724 -68.196373
v -71.695618 -40.577724 -68.196373
v -74.352348 -38.978405 18.410757
v -74.352348 -38.978405 -69.607925
v 91.310043 -38.978405 -69.607925
v 91.310043 -38.978405 18.410757
v -74.352348 -36.905243 18.410757
v -74.352348 -36.905243 -69.607925
g organiser1:default1
v 91.310043 -36.905243 -69.607925
v 91.310043 -36.905243 18.410757
v -63.678154 -40.577724 16.999201
g default
v 87.049820 -40.577724 -66.066483
v 80.635841 -40.577724 -66.066475
v 87.049820 -40.577724 -60.102791
v 80.635841 -40.577724 -60.102791
v 80.635841 -113.248672 -60.102791
v 87.049820 -113.248672 -60.102791
v 87.049820 -113.248672 -66.066483
v 80.635841 -113.248672 -66.066475
v 87.049820 -40.577724 14.869314
v 80.635841 -40.577724 14.869307
v 87.049820 -40.577724 8.905619
v 80.635841 -40.577724 8.905619
v 80.635841 -113.248672 14.869307
v 87.049820 -113.248672 14.869314
v 87.049820 -113.248672 8.905619
v 80.635841 -113.248672 8.905619
vt 0.702240 0.982178
vt 0.983374 0.982178
vt 0.702240 0.737925
vt 0.983373 0.737925
vt 0.983373 0.441297
vt 0.702240 0.441297
vt 0.346735 0.912886
vt 0.693049 0.912886
vt 0.346735 0.874678
vt 0.693049 0.874678
vt 0.346736 0.864528
vt 0.693049 0.864528
vt 0.346735 0.960409
vt 0.693049 0.960409
vt 0.346735 0.941306
vt 0.693049 0.941306
vt 0.369434 0.834443
vt 0.369434 0.460231
vt 0.348791 0.834443
vt 0.348791 0.460231
vt 0.400143 0.460231
vt 0.400143 0.834443
vt 0.414147 0.494765
vt 0.414147 0.784389
vt 0.689174 0.494765
vt 0.689174 0.784389
vt 0.054073 0.410027
vt 0.952864 0.410027
vt 0.054073 0.027996
vt 0.952864 0.027996
vt 0.029077 0.403901
vt 0.045075 0.410027
vt 0.029077 0.034122
vt 0.045075 0.027996
vt 0.977860 0.034122
vt 0.961862 0.027996
vt 0.977860 0.403901
vt 0.961862 0.410027
vt 0.054073 0.419026
vt 0.068487 0.428284
vt 0.952864 0.419026
vt 0.111985 0.428284
vt 0.938450 0.428284
vt 0.054073 0.018997
vt 0.952864 0.018997
vt 0.233721 0.440066
vt 0.233721 0.976120
vt 0.292862 0.440066
vt 0.292862 0.976120
vt 0.336853 0.976120
vt 0.336853 0.440066
vt 0.189730 0.976120
vt 0.189730 0.440066
vt 0.076536 0.441908
vt 0.076536 0.978455
vt 0.135731 0.441908
vt 0.135731 0.978455
vt 0.179762 0.978455
vt 0.179762 0.441908
vt 0.032504 0.978455
vt 0.032504 0.441908
vn 0.000000 0.000000 1.000000
vn 0.000000 0.000000 1.000000
vn 0.000000 0.000000 1.000000
vn 0.000000 0.000000 1.000000
vn 1.000000 0.000000 0.000000
vn 1.000000 0.000000 0.000000
vn 1.000000 0.000000 0.000000
vn 1.000000 0.000000 0.000000
vn 0.000000 0.000000 1.000000
vn 0.000000 0.000000 1.000000
vn 0.000000 0.000000 1.000000
vn 0.000000 0.000000 1.000000
vn 1.000000 0.000000 0.000000
vn 1.000000 0.000000 0.000000
vn 1.000000 0.000000 0.000000
vn 1.000000 0.000000 0.000000
vn 0.000000 0.000000 -1.000000
vn 0.000000 0.000000 -1.000000
vn 0.000000 0.000000 -1.000000
vn 0.000000 0.000000 -1.000000
vn -1.000000 0.000000 -0.000001
vn -1.000000 0.000000 -0.000001
vn -1.000000 0.000000 -0.000001
vn -1.000000 0.000000 -0.000001
vn 0.000000 0.000000 1.000000
vn 0.000000 0.000000 1.000000
vn 0.000000 0.000000 1.000000
vn 0.000000 0.000000 1.000000
vn -1.000000 0.000000 0.000000
vn -1.000000 0.000000 0.000000
vn -1.000000 0.000000 0.000000
vn -1.000000 0.000000 0.000000
vn -1.000000 0.000000 0.000000
vn -1.000000 0.000000 0.000000
vn -1.000000 0.000000 0.000000
vn -1.000000 0.000000 0.000000
vn 0.000000 1.000000 0.000000
vn 0.000000 1.000000 0.000000
vn 0.000000 1.000000 0.000000
vn 0.000000 1.000000 0.000000
vn -0.515748 -0.856740 0.000000
vn -0.515748 -0.856740 0.000000
vn -0.515748 -0.856740 0.000000
vn -0.515748 -0.856740 0.000000
vn 0.515748 -0.856740 0.000000
vn 0.515748 -0.856740 0.000000
vn 0.515748 -0.856740 0.000000
vn 0.515748 -0.856740 0.000000
vn 0.000000 -0.661725 0.749747
vn 0.000000 -0.661725 0.749747
vn 0.000000 -0.661725 0.749747
vn 0.000000 -0.661725 0.749747
vn 0.000000 -0.661725 0.749747
vn -1.000000 0.000000 0.000000
vn -1.000000 0.000000 0.000000
vn -1.000000 0.000000 0.000000
vn -1.000000 0.000000 0.000000
vn 0.000000 0.000000 -1.000000
vn 0.000000 0.000000 -1.000000
vn 0.000000 0.000000 -1.000000
vn 0.000000 0.000000 -1.000000
vn 1.000000 0.000000 0.000000
vn 1.000000 0.000000 0.000000
vn 1.000000 0.000000 0.000000
vn 1.000000 0.000000 0.000000
vn 0.000000 0.000000 1.000000
vn 0.000000 0.000000 1.000000
vn 0.000000 0.000000 1.000000
vn 0.000000 0.000000 1.000000
vn 0.000000 0.000000 1.000000
vn 0.000000 0.000000 1.000000
vn 0.000000 0.000000 1.000000
vn 0.000000 0.000000 1.000000
vn 1.000000 0.000000 0.000000
vn 1.000000 0.000000 0.000000
vn 1.000000 0.000000 0.000000
vn 1.000000 0.000000 0.000000
vn -1.000000 0.000000 0.000000
vn -1.000000 0.000000 0.000000
vn -1.000000 0.000000 0.000000
vn -1.000000 0.000000 0.000000
vn -0.000001 0.000000 1.000000
vn -0.000001 0.000000 1.000000
vn -0.000001 0.000000 1.000000
vn -0.000001 0.000000 1.000000
vn 1.000000 0.000000 -0.000001
vn 1.000000 0.000000 -0.000001
vn 1.000000 0.000000 -0.000001
vn 1.000000 0.000000 -0.000001
vn -1.000000 0.000000 0.000000
vn -1.000000 0.000000 0.000000
vn -1.000000 0.000000 0.000000
vn -1.000000 0.000000 0.000000
s 1
g pasted__polySurface10 group
usemtl pasted__pasted__lambert2SG1
f 2/1/1 11/2/2 1/3/3
f 11/2/2 12/4/4 1/3/3
s 2
usemtl pasted__pasted__lambert2SG
f 12/4/5 13/5/6 1/3/7
f 13/5/6 3/6/8 1/3/7
s 3
f 5/7/9 14/8/10 4/9/11
f 14/8/10 15/10/12 4/9/11
s 4
g organiser1:Organizer organiser1:pasted__pCube1 organiser1:polySurface2 pasted__polySurface10 group
usemtl pasted__lambert3SG
f 4/9/13 15/10/14 2/11/15
f 15/10/14 11/12/16 2/11/15
s 5
f 9/13/17 16/14/18 8/15/19
f 16/14/18 17/16/20 8/15/19
s 6
f 14/8/21 5/7/22 17/16/23
f 5/7/22 8/15/24 17/16/23
s 7
f 7/17/25 18/18/26 10/19/27
f 18/18/26 19/20/28 10/19/27
s 8
f 18/18/29 7/17/30 20/21/31
f 7/17/30 6/22/32 20/21/31
s 9
f 10/23/33 19/24/34 9/25/35
f 19/24/34 16/26/36 9/25/35
s 10
g pasted__polySurface10 group
usemtl pasted__pasted__lambert2SG1
f 29/27/37 32/28/38 30/29/39
f 32/28/38 31/30/40 30/29/39
s 11
usemtl pasted__pasted__lambert2SG
f 22/31/41 25/32/42 24/33/43
f 25/32/42 26/34/44 24/33/43
s 12
f 23/35/45 27/36/46 21/37/47
f 27/36/46 28/38/48 21/37/47
s 13
g organiser1:Organizer organiser1:pasted__pCube1 organiser1:polySurface2 pasted__polySurface10 group
usemtl pasted__lambert3SG
f 25/39/49 22/40/50 28/41/51
f 22/40/50 33/42/52 28/41/51
f 28/41/51 33/42/52 21/43/53
s 14
f 25/32/54 29/27/55 26/34/56
f 29/27/55 30/29/57 26/34/56
s 15
f 26/44/58 30/29/59 27/45/60
f 30/29/59 31/30/61 27/45/60
s 16
f 27/36/62 31/30/63 28/38/64
f 31/30/63 32/28/65 28/38/64
s 17
f 28/41/66 32/28/67 25/39/68
f 32/28/67 29/27/69 25/39/68
s 18
g pasted__polySurface10 group
usemtl pasted__pasted__lambert2SG1
f 37/46/70 38/47/71 36/48/72
f 38/47/71 39/49/73 36/48/72
s 19
usemtl pasted__pasted__lambert2SG
f 39/49/74 40/50/75 36/48/76
f 40/50/75 34/51/77 36/48/76
s 20
f 38/47/78 37/46/79 41/52/80
f 37/46/79 35/53/81 41/52/80
s 21
usemtl pasted__pasted__lambert2SG1
f 43/54/82 46/55/83 42/56/84
f 46/55/83 47/57/85 42/56/84
s 22
usemtl pasted__pasted__lambert2SG
f 47/57/86 48/58/87 42/56/88
f 48/58/87 44/59/89 42/56/88
s 23
f 46/55/90 43/54/91 49/60/92
f 43/54/91 45/61/93 49/60/92
