# This file uses centimeters as units for non-parametric coordinates.

mtllib translatedtable.mtl
g default1
v -21.647114 34.499233 38.338003
v -72.156998 34.499233 38.338003
v -21.647114 34.499233 -38.338007
v -72.156998 34.499233 40.467897
v -78.570976 34.499233 40.467897
v -78.570976 34.499233 -40.467897
v -78.570976 34.499233 -34.504206
v -78.570976 34.499233 34.504206
v -75.363998 34.499233 34.504206
v -75.363998 34.499233 -34.504206
g default2
v -72.156998 -38.171700 38.338003
v -21.647114 -38.171700 38.338003
v -21.647114 -38.171700 -38.338007
v -78.570976 -38.171700 40.467897
v -72.156998 -38.171700 40.467897
v -75.363998 -38.171700 34.504206
v -78.570976 -38.171700 34.504206
v -78.570976 -38.171715 -34.504206
v -75.363998 -38.171715 -34.504206
v -78.570976 -38.171715 -40.467897
g default1
v 80.174461 34.499233 42.597784
v -80.174461 34.499233 42.597784
v 80.174461 34.499233 -42.597788
v -80.174461 34.499233 -42.597788
v -82.831200 36.098553 44.009340
v -82.831200 36.098553 -44.009340
v 82.831200 36.098553 -44.009340
v 82.831200 36.098553 44.009340
v -82.831200 38.171715 44.009340
v -82.831200 38.171715 -44.009340
g default2
v 82.831200 38.171715 -44.009340
v 82.831200 38.171715 44.009340
v -72.156998 34.499233 42.597784
g default1
v 78.570969 34.499233 -40.467897
v 72.156998 34.499233 -40.467890
v 78.570969 34.499233 -34.504206
v 72.156998 34.499233 -34.504206
v 72.156998 -38.171715 -34.504206
v 78.570969 -38.171715 -34.504206
v 78.570969 -38.171715 -40.467897
v 72.156998 -38.171715 -40.467890
v 78.570969 34.499233 40.467897
v 72.156998 34.499233 40.467894
v 78.570969 34.499233 34.504206
v 72.156998 34.499233 34.504206
v 72.156998 -38.171715 40.467894
v 78.570969 -38.171715 40.467897
v 78.570969 -38.171715 34.504206
v 72.156998 -38.171715 34.504206
vt 0.702240 0.982178
vt 0.983374 0.982178
vt 0.702240 0.737925
vt 0.983373 0.737925
vt 0.983373 0.441297
vt 0.702240 0.441297
vt 0.346735 0.912886
vt 0.693049 0.912886
vt 0.346735 0.874678
vt 0.693049 0.874678
vt 0.346736 0.864528
vt 0.693049 0.864528
vt 0.346735 0.960409
vt 0.693049 0.960409
vt 0.346735 0.941306
vt 0.693049 0.941306
vt 0.369434 0.834443
vt 0.369434 0.460231
vt 0.348791 0.834443
vt 0.348791 0.460231
vt 0.400143 0.460231
vt 0.400143 0.834443
vt 0.414147 0.494765
vt 0.414147 0.784389
vt 0.689174 0.494765
vt 0.689174 0.784389
vt 0.054073 0.410027
vt 0.952864 0.410027
vt 0.054073 0.027996
vt 0.952864 0.027996
vt 0.029077 0.403901
vt 0.045075 0.410027
vt 0.029077 0.034122
vt 0.045075 0.027996
vt 0.977860 0.034122
vt 0.961862 0.027996
vt 0.977860 0.403901
vt 0.961862 0.410027
vt 0.054073 0.419026
vt 0.068487 0.428284
vt 0.952864 0.419026
vt 0.111985 0.428284
vt 0.938450 0.428284
vt 0.054073 0.018997
vt 0.952864 0.018997
vt 0.233721 0.440066
vt 0.233721 0.976120
vt 0.292862 0.440066
vt 0.292862 0.976120
vt 0.336853 0.976120
vt 0.336853 0.440066
vt 0.189730 0.976120
vt 0.189730 0.440066
vt 0.076536 0.441908
vt 0.076536 0.978455
vt 0.135731 0.441908
vt 0.135731 0.978455
vt 0.179762 0.978455
vt 0.179762 0.441908
vt 0.032504 0.978455
vt 0.032504 0.441908
vn 0.000000 0.000000 1.000000
vn 0.000000 0.000000 1.000000
vn 0.000000 0.000000 1.000000
vn 0.000000 0.000000 1.000000
vn 0.000000 0.000000 1.000000
vn 0.000000 0.000000 1.000000
vn 1.000000 0.000000 0.000000
vn 1.000000 0.000000 0.000000
vn 1.000000 0.000000 0.000000
vn 1.000000 0.000000 0.000000
vn 1.000000 0.000000 0.000000
vn 1.000000 0.000000 0.000000
vn 0.000000 0.000000 1.000000
vn 0.000000 0.000000 1.000000
vn 0.000000 0.000000 1.000000
vn 0.000000 0.000000 1.000000
vn 0.000000 0.000000 1.000000
vn 0.000000 0.000000 1.000000
vn 1.000000 0.000000 0.000000
vn 1.000000 0.000000 0.000000
vn 1.000000 0.000000 0.000000
vn 1.000000 0.000000 0.000000
vn 1.000000 0.000000 0.000000
vn 1.000000 0.000000 0.000000
vn 0.000000 0.000000 -1.000000
vn 0.000000 0.000000 -1.000000
vn 0.000000 0.000000 -1.000000
vn 0.000000 0.000000 -1.000000
vn 0.000000 0.000000 -1.000000
vn 0.000000 0.000000 -1.000000
vn -1.000000 0.000000 -0.000001
vn -1.000000 0.000000 -0.000001
vn -1.000000 0.000000 -0.000001
vn -1.000000 0.000000 -0.000001
vn -1.000000 0.000000 -0.000001
vn -1.000000 0.000000 -0.000001
vn 0.000000 0.000000 1.000000
vn 0.000000 0.000000 1.000000
vn 0.000000 0.000000 1.000000
vn 0.000000 0.000000 1.000000
vn 0.000000 0.000000 1.000000
vn 0.000000 0.000000 1.000000
vn -1.000000 0.000000 0.000000
vn -1.000000 0.000000 0.000000
vn -1.000000 0.000000 0.000000
vn -1.000000 0.000000 0.000000
vn -1.000000 0.000000 0.000000
vn -1.000000 0.000000 0.000000
vn -1.000000 0.000000 0.000000
vn -1.000000 0.000000 0.000000
vn -1.000000 0.000000 0.000000
vn -1.000000 0.000000 0.000000
vn -1.000000 0.000000 0.000000
vn -1.000000 0.000000 0.000000
vn 0.000000 1.000000 0.000000
vn 0.000000 1.000000 0.000000
vn 0.000000 1.000000 0.000000
vn 0.000000 1.000000 0.000000
vn 0.000000 1.000000 0.000000
vn 0.000000 1.000000 0.000000
vn -0.515748 -0.856740 0.000000
vn -0.515748 -0.856740 0.000000
vn -0.515748 -0.856740 0.000000
vn -0.515748 -0.856740 0.000000
vn -0.515748 -0.856740 0.000000
vn -0.515748 -0.856740 0.000000
vn 0.515748 -0.856740 0.000000
vn 0.515748 -0.856740 0.000000
vn 0.515748 -0.856740 0.000000
vn 0.515748 -0.856740 0.000000
vn 0.515748 -0.856740 0.000000
vn 0.515748 -0.856740 0.000000
vn 0.000000 -0.661725 0.749747
vn 0.000000 -0.661725 0.749747
vn 0.000000 -0.661725 0.749747
vn 0.000000 -0.661725 0.749747
vn 0.000000 -0.661725 0.749747
vn 0.000000 -0.661725 0.749747
vn 0.000000 -0.661725 0.749747
vn 0.000000 -0.661725 0.749747
vn 0.000000 -0.661725 0.749747
vn -1.000000 0.000000 0.000000
vn -1.000000 0.000000 0.000000
vn -1.000000 0.000000 0.000000
vn -1.000000 0.000000 0.000000
vn -1.000000 0.000000 0.000000
vn -1.000000 0.000000 0.000000
vn 0.000000 0.000000 -1.000000
vn 0.000000 0.000000 -1.000000
vn 0.000000 0.000000 -1.000000
vn 0.000000 0.000000 -1.000000
vn 0.000000 0.000000 -1.000000
vn 0.000000 0.000000 -1.000000
vn 1.000000 0.000000 0.000000
vn 1.000000 0.000000 0.000000
vn 1.000000 0.000000 0.000000
vn 1.000000 0.000000 0.000000
vn 1.000000 0.000000 0.000000
vn 1.000000 0.000000 0.000000
vn 0.000000 0.000000 1.000000
vn 0.000000 0.000000 1.000000
vn 0.000000 0.000000 1.000000
vn 0.000000 0.000000 1.000000
vn 0.000000 0.000000 1.000000
vn 0.000000 0.000000 1.000000
vn 0.000000 0.000000 1.000000
vn 0.000000 0.000000 1.000000
vn 0.000000 0.000000 1.000000
vn 0.000000 0.000000 1.000000
vn 0.000000 0.000000 1.000000
vn 0.000000 0.000000 1.000000
vn 1.000000 0.000000 0.000000
vn 1.000000 0.000000 0.000000
vn 1.000000 0.000000 0.000000
vn 1.000000 0.000000 0.000000
vn 1.000000 0.000000 0.000000
vn 1.000000 0.000000 0.000000
vn -1.000000 0.000000 0.000000
vn -1.000000 0.000000 0.000000
vn -1.000000 0.000000 0.000000
vn -1.000000 0.000000 0.000000
vn -1.000000 0.000000 0.000000
vn -1.000000 0.000000 0.000000
vn -0.000001 0.000000 1.000000
vn -0.000001 0.000000 1.000000
vn -0.000001 0.000000 1.000000
vn -0.000001 0.000000 1.000000
vn -0.000001 0.000000 1.000000
vn -0.000001 0.000000 1.000000
vn 1.000000 0.000000 -0.000001
vn 1.000000 0.000000 -0.000001
vn 1.000000 0.000000 -0.000001
vn 1.000000 0.000000 -0.000001
vn 1.000000 0.000000 -0.000001
vn 1.000000 0.000000 -0.000001
vn -1.000000 0.000000 0.000000
vn -1.000000 0.000000 0.000000
vn -1.000000 0.000000 0.000000
vn -1.000000 0.000000 0.000000
vn -1.000000 0.000000 0.000000
vn -1.000000 0.000000 0.000000
s off
g group pasted__polySurface10 polySurface2 polySurface3 Desk
usemtl initialShadingGroup
f 2/1/1 11/2/2 1/3/3
f 11/2/4 12/4/5 1/3/6
f 12/4/7 13/5/8 1/3/9
f 13/5/10 3/6/11 1/3/12
f 5/7/13 14/8/14 4/9/15
f 14/8/16 15/10/17 4/9/18
g Organizer group pasted__pCube1 pasted__polySurface10 polySurface2 polySurface3 polySurface4 Desk
f 4/9/19 15/10/20 2/11/21
f 15/10/22 11/12/23 2/11/24
f 9/13/25 16/14/26 8/15/27
f 16/14/28 17/16/29 8/15/30
f 14/8/31 5/7/32 17/16/33
f 5/7/34 8/15/35 17/16/36
f 7/17/37 18/18/38 10/19/39
f 18/18/40 19/20/41 10/19/42
f 18/18/43 7/17/44 20/21/45
f 7/17/46 6/22/47 20/21/48
f 10/23/49 19/24/50 9/25/51
f 19/24/52 16/26/53 9/25/54
g group pasted__polySurface10 polySurface2 polySurface3 Desk
f 29/27/55 32/28/56 30/29/57
f 32/28/58 31/30/59 30/29/60
f 22/31/61 25/32/62 24/33/63
f 25/32/64 26/34/65 24/33/66
f 23/35/67 27/36/68 21/37/69
f 27/36/70 28/38/71 21/37/72
g Organizer group pasted__pCube1 pasted__polySurface10 polySurface2 polySurface3 polySurface4 Desk
f 25/39/73 22/40/74 28/41/75
f 22/40/76 33/42/77 28/41/78
f 28/41/79 33/42/80 21/43/81
f 25/32/82 29/27/83 26/34/84
f 29/27/85 30/29/86 26/34/87
f 26/44/88 30/29/89 27/45/90
f 30/29/91 31/30/92 27/45/93
f 27/36/94 31/30/95 28/38/96
f 31/30/97 32/28/98 28/38/99
f 28/41/100 32/28/101 25/39/102
f 32/28/103 29/27/104 25/39/105
g group pasted__polySurface10 polySurface2 polySurface3 Desk
f 37/46/106 38/47/107 36/48/108
f 38/47/109 39/49/110 36/48/111
f 39/49/112 40/50/113 36/48/114
f 40/50/115 34/51/116 36/48/117
f 38/47/118 37/46/119 41/52/120
f 37/46/121 35/53/122 41/52/123
f 43/54/124 46/55/125 42/56/126
f 46/55/127 47/57/128 42/56/129
f 47/57/130 48/58/131 42/56/132
f 48/58/133 44/59/134 42/56/135
f 46/55/136 43/54/137 49/60/138
f 43/54/139 45/61/140 49/60/141
